<?xml version="1.0"?>
<svg xmlns="http://www.w3.org/2000/svg" xmlns:xlink="http://www.w3.org/1999/xlink" version="1.1" id="&#x421;&#x43B;&#x43E;&#x439;_1" x="0" y="0" viewBox="0 0 326.1 380.5" style="enable-background:new 0 0 326.1 380.5" xml:space="preserve">
  <style>.st20{fill:#f1e2b9}.st21{fill:#efe0b9}.st22{fill:#efdfb7}.st23{fill:#eddfb5}.st24{fill:#eddeb5}.st25{fill:#eddcb3}.st26{fill:#eadbb2}.st27{fill:#ebdbb1}.st28{fill:#eadab1}.st29{fill:#ead9af}.st30{fill:#e8d9af}.st31{fill:#e8d7ad}.st32{fill:#e7d6ad}.st33{fill:#e7d6ab}.st34{fill:#e6d5ab}.st35{fill:#e6d5aa}.st36{fill:#e4d3a9}.st37{fill:#e4d2a7}.st38{fill:#e3d2a6}.st39{fill:#e2d1a6}.st40{fill:#dfcda2}.st41{fill:#ddcca1}.st42{fill:#decca0}.st43{fill:#ddcba0}.st44{fill:#ddcb9f}.st46{fill:#dcca9d}.st47{fill:#dbc79a}.st48{fill:#d9c69a}.st49{fill:#d8c498}.st50{fill:#d7c598}.st51{fill:#d6c396}.st52{fill:#d6c295}.st53{fill:#d4c195}.st54{fill:#d4c193}.st55{fill:#d4c093}.st56{fill:#d4bf91}.st57{fill:#d3bf91}.st58{fill:#d3be90}.st60{fill:#d1bc8d}.st61{fill:#cfba8d}.st62{fill:#ceb88b}.st63{fill:#ceb98a}.st64{fill:#ceb88a}.st65{fill:#ccb789}.st66{fill:#ccb787}.st68{fill:#cab586}.st71{fill:#f1e0b8}.st72{fill:#efe0b7}.st73{fill:#eddeb6}.st74{fill:#eddcb2}.st77{fill:#e2d1a4}.st78{fill:#dcc99d}.st80{fill:#cfbb8d}.st93{fill:#eadab2}.st94{fill:#e8d7ae}.st95{fill:#e8d6ad}.st97{fill:#d8c699}.st107{fill:#e6d6ac}.st116{fill:#c7b183}.st118{fill:#c3ae81}.st122{fill:#bea87e}.st123{fill:#bda67c}.st125{fill:#b9a37a}.st129{fill:#b29d75}.st130{fill:#b29b74}.st131{fill:#b09973}.st132{fill:#ae9872}.st133{fill:#ae9771}.st134{fill:#ad9771}.st135{fill:#ac9470}.st137{fill:#a8926e}.st138{fill:#a8916d}.st139{fill:#a7906c}.st140{fill:#a68f6b}.st141{fill:#a48e6b}.st147{fill:#9d8764}.st150{fill:#998261}.st151{fill:#988160}.st152{fill:#97805f}.st153{fill:#957f5f}.st156{fill:#947d5d}.st158{fill:#937b5b}.st159{fill:#91795a}.st160{fill:#90795a}.st161{fill:#8f7859}.st162{fill:#8f7759}.st163{fill:#8d7657}.st164{fill:#8d7556}.st166{fill:#8b7355}.st168{fill:#897354}.st169{fill:#887153}.st172{fill:#866f52}.st173{fill:#856e51}.st174{fill:#866d50}.st177{fill:#836b4e}.st178{fill:#836a4e}.st180{fill:#81694d}.st208{fill:#8c7456}.st213{fill:#dccca1}</style>
  <radialGradient id="SVGID_1_" cx="222.819" cy="292.24" r="112.467" gradientTransform="matrix(1 0 0 -1 0 381.663)" gradientUnits="userSpaceOnUse">
    <stop offset=".01" style="stop-color:#fff"/>
    <stop offset=".31" style="stop-color:#fff"/>
    <stop offset=".57" style="stop-color:#8c8c8c"/>
    <stop offset="1" style="stop-color:#fff"/>
  </radialGradient>
  <path d="M222.2 70.1c-1 .5-2.3.8-3.3 1.4-3.6 1.9-6.8 4.5-9.5 7.7l-.2-.5c1.3-1.5 2.4-3.2 3.1-5l.6-1.2c.1-.1.2-.3.2-.5.4-.7.9-1.5 1.4-2.1 2.1-1.3 4.5-2 7-2.1.2.7.5 1.4.7 2 .2.2 0 .1 0 .3z" style="fill:url(#SVGID_1_)"/>
  <g id="&#x418;&#x442;&#x43E;&#x433;_&#x433;&#x43B;&#x430;&#x432;&#x43D;&#x430;&#x44F;">
    <linearGradient id="SVGID_2_" gradientUnits="userSpaceOnUse" x1="291.745" y1="283.816" x2="202.371" y2="259.559" gradientTransform="matrix(1 0 0 -1 0 381.663)">
      <stop offset="0" style="stop-color:#cab485"/>
      <stop offset=".29" style="stop-color:#93b49a"/>
      <stop offset=".96" style="stop-color:#08b5ce"/>
      <stop offset="1" style="stop-color:#00b5d1"/>
    </linearGradient>
    <path d="M245.1 109.3c-12.8-10.6-17.5-19-20.1-29.8-1.4-5.9-3.1-12.4-1.8-18.4-1 1.2-2.8 1.1-3.9 2.1-.8 1.2-1.3 2.6-1.4 4-.2 2.9-.2 5.8.1 8.7.1 5.2.7 10.3 1.6 15.4.4 1.7.7 3.5 1.1 5.3.8 3.5 2 6.8 1.9 10.4-.1 2.4-.5 4.8-1.1 7.1-1.5 6.2-1.5 12.6-.2 18.8.6 2.4 1.4 3.9 1.2 6.4-.3 3.3 0 6.6.9 9.7 3.9 12.9 21.5 21.3 32.6 12.8 11.7-8.9 17.2-21.1 25.9-32.5 1-1.4 5.4-7.1 5.9-8.4-14.1-1-31.5-2.3-42.7-11.6z" style="fill:url(#SVGID_2_)"/>
    <linearGradient id="SVGID_3_" gradientUnits="userSpaceOnUse" x1="200.492" y1="325.536" x2="235.429" y2="326.729" gradientTransform="matrix(1 0 0 -1 0 381.663)">
      <stop offset="0" style="stop-color:#cab485"/>
      <stop offset=".29" style="stop-color:#93b49a"/>
      <stop offset=".96" style="stop-color:#08b5ce"/>
      <stop offset="1" style="stop-color:#00b5d1"/>
    </linearGradient>
    <path d="M211.5 50.3c.7-1.6 2.2-2.8 4-3 3.7-.4 7.4.6 10.4 2.6 3.6 2.1 5.8 5.2 8.3 8.4.2.3.8.8.8 1.2 0 1.1-1.9 1-2.7 1.1-1.7.2-3.5.4-5.3.7-1.2.3-2.4.6-3.6 1-1.5.5-3.1 1.5-4.8 1.4-4.5-.4-9-8.8-7.1-13.4z" style="fill:url(#SVGID_3_)"/>
    <path d="M219.5 55.1c-1.4-5.6-5.1-11.1-10.2-13.2-7.5-3.1-15.5-4.7-23.6-4.9-22.9 0-50.2 16.4-52 43.5-.7 11.2 3 22.3 2.2 33.5-.7 8.7-4 16.8-5.5 25.4s.6 15.5 2.8 23.7c2.3 8.6-3.7 16.1-4.2 24.5-.5 8.4 4.9 16.2 7.2 24 1.5 5.1-1.9 15.2 5.9 16.2 4.5.6 9.7-.1 14.3-.1 5.2 0 10.9.7 15-3.1 4-3.8 5.7-10.7 8.1-15.7 4.6-9.6 9.9-18.5 18-25.5 8.3-7.2 16.6-15.1 21.9-25 .3-.6.6-1.2.9-1.9.3-.6.6-1.3.8-2 .3-.6.5-1.2.6-1.8 0-1-1.4-1.5-2.1-1.6-1 0-1.9-.1-2.9-.3-1-.3-1.7-1.1-2-2v-.6c.1-.6.9-.8 1.6-.9 1.6-.6 3-1.8 3.8-3.3 1-1.3 1.7-2.7 2.3-4.2.4-1.6.5-3.3.4-5-.2-3.5-.3-6.9-.1-10.4.5-5 1.4-10 1.5-15v-7.8c0-4-.6-8.1-1.6-12-.4-1.7-1.6-3.6-1.7-5.3s1-3.3 1.3-4.9c.3-1.6.4-3.2.3-4.8 0-2-.1-3.9-.5-5.8s-1.4-3.5-1.7-5.4c-.1-1.4-.1-2.9 0-4.3-.2-1.4-.4-2.7-.8-4z" style="fill:#f1e1b9"/>
    <linearGradient id="SVGID_4_" gradientUnits="userSpaceOnUse" x1="192.778" y1="301.49" x2="164.387" y2="302.337" gradientTransform="matrix(1 0 0 -1 0 381.663)">
      <stop offset="0" style="stop-color:#cab485"/>
      <stop offset=".39" style="stop-color:#dfcca1"/>
      <stop offset=".74" style="stop-color:#ecdcb3"/>
      <stop offset="1" style="stop-color:#f1e1b9"/>
    </linearGradient>
    <path d="M185.8 81.3c.7 0 1.3-.1 1.9-.3.9-.2 1.6-.9 1.8-1.9.2-2.6-4.5-2.9-6-3.7-2.5-1.4-5.4-1.7-8.1-.8-2 .4-3.8 1.3-5.4 2.5-1.1 1.1-2.1 2.3-2.9 3.6-.7 1.1-1.5 2.8-.3 3.9.8.7 2.5.3 3.5.2 1.7-.1 3.4-.5 5-1.2 1.8-1 3.6-1.8 5.5-2.3 1.7 0 3.4-.1 5 0z" style="fill:url(#SVGID_4_)"/>
    <radialGradient id="SVGID_5_" cx="109.589" cy="326.081" r="93.008" gradientTransform="matrix(1 0 0 -1 0 381.663)" gradientUnits="userSpaceOnUse">
      <stop offset="0" style="stop-color:#cab485"/>
      <stop offset=".82" style="stop-color:#ead8af"/>
      <stop offset="1" style="stop-color:#f1e1b9"/>
    </radialGradient>
    <path d="m182.4 179.9-1.1 1.3c-3 3.6-6.3 6.9-9.3 10.5-5.4 6.5-10.8 13.4-12.9 21.6-1.6 6-6.1 15-13.7 13.6-11.9-2.2-9.7-19.2-10.9-28-1.6-11.7 3-23.3 3.9-35.2.8-10.8-1.5-22 .9-32.7 2.3-10 4.6-20.9 4.9-31.4.3-8.2-.9-16.2-1.2-25-.2-6.4 4.6-14.7 9.6-17.9s10.9-5.2 16.1-8.1c5.4-3 14.7-3.1 18.2 3 1.2 2.2 1.9 4.6 2.2 7.1.5 3.6-.5 7.2-2.8 10-1.7 2-3.5 3.9-5.5 5.7-1.2 1.2-2.7 2-3.8 3.2-.9 1.3-1.4 2.8-1.4 4.3 0 .3 0 .6-.1.8-.2.5-.4.5-.8.6-2.4.9-5.8 2.8-5 5.9.8 3.1 4.2 4.8 6.1 6.8 3.6 3.8 6.8 7.9 9.6 12.3 2.9 4.7 4.2 10.1 5.2 15.5 1 4.6.8 8.8 3.7 12.8 5.1 7 14.6 9.7 22.9 9.4-7.3 4.2-12.7 10.7-18 17-5.1 6.6-11.4 10.9-16.8 16.9z" style="fill:url(#SVGID_5_)"/>
    <radialGradient id="SVGID_6_" cx="200.157" cy="295.846" r="29.611" gradientTransform="matrix(1 0 0 -1 0 381.663)" gradientUnits="userSpaceOnUse">
      <stop offset=".2" style="stop-color:#80694c"/>
      <stop offset=".28" style="stop-color:#cab485"/>
      <stop offset="1" style="stop-color:#f1e1b9"/>
    </radialGradient>
    <path d="M220.2 67.7c-.1-.4-.1-1.8-.4-2-.1-.1-.2-.1-.3-.1-.8.1-1.5.5-2 1.2-.9.8-1.7 1.7-2.5 2.6-1 1.3-1.8 2.7-2.5 4.2-.8 1.9-1.8 3.6-3.1 5.1v.2c.3.7.6 1.4.9 1.9.3 1 .9 1.9 1.5 2.8 2.1-2.2 3.5-4.2 6.7-5 .1 0 .3-.1.4-.2.1-.1.2-.3.2-.5.6-2.5 1-5 1.3-7.6 0-.4.1-.8.1-1.2-.1-.5-.2-1-.3-1.4z" style="fill:url(#SVGID_6_)"/>
    <linearGradient id="SVGID_7_" gradientUnits="userSpaceOnUse" x1="111.654" y1="147.565" x2="105.136" y2="199.298" gradientTransform="matrix(1 0 0 -1 0 381.663)">
      <stop offset="0" style="stop-color:#cab485"/>
      <stop offset=".29" style="stop-color:#93b49a"/>
      <stop offset=".96" style="stop-color:#08b5ce"/>
      <stop offset="1" style="stop-color:#00b5d1"/>
    </linearGradient>
    <path d="M123.1 182.3c1.7-3.4 4.2-7.1 8.3-7.4 1.3 4.2 0 9.3.4 13.6.3 3.6.8 7.1 1.5 10.6.8 3.9 2 7.8 3.1 11.7 1.4 4.9 3.5 13.7 8.1 16.6-5.7-3.5-12.5-2.1-18.6-1.7-6.5.4-13.2-.3-19.8-.4-9.7-.1-19.5-.1-29.3-.2 1-3.1 9.2-8.8 14.7-13 6.2-4.7 12.6-8.8 18.3-14.2 4-3.9 9.9-7.7 12.1-13 .4-.8.7-1.7 1.2-2.6z" style="fill:url(#SVGID_7_)"/>
    <linearGradient id="SVGID_8_" gradientUnits="userSpaceOnUse" x1="213.915" y1="226.041" x2="213.915" y2="153.628" gradientTransform="matrix(1 0 0 -1 0 381.663)">
      <stop offset="0" style="stop-color:#f1e1b9"/>
      <stop offset="1" style="stop-color:#cab485"/>
    </linearGradient>
    <path d="M171.9 224.6c0 .6 0 1.2.2 1.8 1.6 4.5 9.7 1.3 13.4.7 2.5-7.2 5.7-15.5 10.5-21.6 3.6-4.6 11-5.8 16.2-8.2 6.5-3.2 13.4-5.4 20.6-6.5 7.6-1.1 14.2-4.4 21.2-7.7 7.6-3.5 13.9-6.8 22.1-7.9-13 1.7-23-8.6-34.9-13.1-4.2-1.6-10-3.8-14.5-3-4 .7-9.8 1.6-13.6 3.2-10.5 4.5-15.1 14.6-20.3 24.2-4.5 8.2-11.3 14.7-15.3 23.1-1.3 2.7-5.4 10.5-5.6 15zm-20.1-30z" style="fill:url(#SVGID_8_)"/>
    <linearGradient id="SVGID_9_" gradientUnits="userSpaceOnUse" x1="122.599" y1="192.55" x2="237.133" y2="192.55" gradientTransform="matrix(1 0 0 -1 0 381.663)">
      <stop offset="0" style="stop-color:#cab485"/>
      <stop offset=".36" style="stop-color:#c8b486"/>
      <stop offset=".5" style="stop-color:#c1b488"/>
      <stop offset=".61" style="stop-color:#b5b48d"/>
      <stop offset=".69" style="stop-color:#a3b494"/>
      <stop offset=".77" style="stop-color:#8db49c"/>
      <stop offset=".83" style="stop-color:#71b4a7"/>
      <stop offset=".9" style="stop-color:#4fb5b3"/>
      <stop offset=".95" style="stop-color:#2ab5c1"/>
      <stop offset="1" style="stop-color:#00b5d1"/>
    </linearGradient>
    <path d="M225.5 149.3c-8-2 1 5.5-5.9 7.7-7.3 2.3-12.8 7.7-17.2 13.9-2.3 3.2-3.9 6.7-6.2 9.9-2.1 2.9-4.9 4.2-7.7 6.5-12.6 9.8-21.6 25-25.6 40.2 3.2-.2 6.3-1 9.5-1 6.7 0 13.5 3.4 20 2.7 6-.7 10.7-.9 16.2-3.7 4.7-2.5 7.8-8.6 10.9-12.7 4.4-5.7 11.8-9.3 17.1-14.2 8.3-7.6 17.8-13.7 28.7-16.6 11.6-3.2 20.4-6.8 32.6-6.4-14.1.2-24.5-2.1-37.7-6.9-6.1-2.2-11.7-5.3-16.9-9.2-5.5-4.2-11.2-8.5-17.8-10.2z" style="fill:url(#SVGID_9_)"/>
    <linearGradient id="SVGID_10_" gradientUnits="userSpaceOnUse" x1="-99.321" y1="133.777" x2="171.98" y2="369.086" gradientTransform="matrix(1 0 0 -1 0 381.663)">
      <stop offset=".2" style="stop-color:#009cd8"/>
      <stop offset=".32" style="stop-color:#22a0ca"/>
      <stop offset=".91" style="stop-color:#cab485"/>
    </linearGradient>
    <path d="M148.9 53.6c-9.2-10.8-20.4-17.8-31-26.8-4.2-3.6-6.1-8.7-9.8-13-4-4.8-9-8.5-13.5-12.8C94 .4 93 .4 92.4.9c-.4.3-.6.8-.5 1.2.3 1.7.8 3.4 1.6 5 11.5 22.4 9.5 47.4 9.4 71.7-.1 7.4 1.2 14.7 3.8 21.7 2.3 6.2 5.2 12.3 8.6 18 3 5.2 6.7 10.6 9.1 16 0-2-.2-4-.2-6-.1-2.9.7-5.8 2.3-8.3 1.9-3 3.7-6.2 5.2-9.4 3.3-6.4 7.7-12.5 10.5-19.1 3.2-7.7 10.7-13.5 13.6-21 .2-.5.3-1 .4-1.6 1.3-6.2-3.5-11.1-7.3-15.5z" style="fill:url(#SVGID_10_)"/>
    <linearGradient id="SVGID_11_" gradientUnits="userSpaceOnUse" x1="192.317" y1="213.378" x2="208.932" y2="275.735" gradientTransform="matrix(1 0 0 -1 0 381.663)">
      <stop offset="0" style="stop-color:#cab485"/>
      <stop offset=".27" style="stop-color:#baa479"/>
      <stop offset=".79" style="stop-color:#927b5a"/>
      <stop offset="1" style="stop-color:#80694c"/>
    </linearGradient>
    <path d="M223.8 139.9c4.7 7.7-7.6 18-12.7 22.2-5.4 4.4-9.3 13.9-18.3 11.1-6-1.9-9.7-7.4-12.3-12.8-2.6-5.4-3.9-12.3-7.9-16.9 6.7-.7 13.3 1.6 19.8 3.3 3.6 1.1 7.3 1.7 11.1 2 4.6.2 10.5 0 14.3-2.8 2.1-1.5 4.3-3.1 5.3-5.5.1-.2.3-.6.7-.6z" style="fill:url(#SVGID_11_)"/>
    <linearGradient id="SVGID_12_" gradientUnits="userSpaceOnUse" x1="216.318" y1="294.096" x2="217.815" y2="306.634" gradientTransform="matrix(1 0 0 -1 0 381.663)">
      <stop offset=".01" style="stop-color:#f1e1b9"/>
      <stop offset=".34" style="stop-color:#cab485"/>
      <stop offset="1" style="stop-color:#80694c"/>
    </linearGradient>
    <path d="M218.9 81.7c-.2.6-.5 1.1-.9 1.6-.6.6-1.5.7-2.2.1-.2-.2-.4-.5-.5-.8-.3-1.1-.2-2.3.2-3.3.4-.8 1.1-2.1 1.9-2.2.6-.1 1.2.2 1.5.7.5 1.2.5 2.6 0 3.9z" style="fill:url(#SVGID_12_)"/>
    <linearGradient id="SVGID_13_" gradientUnits="userSpaceOnUse" x1="183.334" y1="71.444" x2="83.987" y2="310.789" gradientTransform="matrix(1 0 0 -1 0 381.663)">
      <stop offset="0" style="stop-color:#cab485"/>
      <stop offset=".15" style="stop-color:#c6b486"/>
      <stop offset=".3" style="stop-color:#bbb48b"/>
      <stop offset=".43" style="stop-color:#a8b492"/>
      <stop offset=".57" style="stop-color:#8eb49c"/>
      <stop offset=".7" style="stop-color:#6cb4a8"/>
      <stop offset=".83" style="stop-color:#42b5b8"/>
      <stop offset=".96" style="stop-color:#12b5ca"/>
      <stop offset="1" style="stop-color:#00b5d1"/>
    </linearGradient>
    <path d="M138 180.8c-5 15.7-.4 34.6 8.6 47.9-1.2-.1-2.8.2-2.8 1.4 0-1.8-3.3-5.3-4.1-7-4.1-8.3-7.1-17.2-8.9-26.4-1.2-7.3-4.7-4.1-10.2-6.9-4.5-2.2-9.1-4.2-13.7-6-6.5-2.6-13.4-4.5-17.9-10.3 11-3.6 21.6-8.1 31.8-13.5 4.2-1.9 8.1-4.5 11.6-7.5 3.2-3 7.2-6 11.4-7.3 1-.3 7.4-1.5 7.4-3 .5 13.9-9 25.7-13.2 38.6z" style="fill:url(#SVGID_13_)"/>
    <linearGradient id="SVGID_14_" gradientUnits="userSpaceOnUse" x1="198.485" y1="175.553" x2="223.714" y2="246.177" gradientTransform="matrix(1 0 0 -1 0 381.663)">
      <stop offset="0" style="stop-color:#f1e1b9"/>
      <stop offset="1" style="stop-color:#cab485"/>
    </linearGradient>
    <path d="M226.5 195.5c-.8 1.7-1.3 3.5-1.4 5.3-11.1 1.6-19.8-8.1-31.2-7.6-10.2.5-15.3 5.1-19.6 12.5-2.3 4-8.6 15.9-7.8 20.4.4 2.1-3.2 4.5-2.9 0 .8-12.3 12.6-29.6 18-35.5 3.1-3.4 7.1-6 10-9.6 5.1-6.2 8-15.7 10.6-23.2.8-2.2 1.5-4.6 3.4-6.2 2.4-2.1 5.7-2.6 8.5-3.8.9-.4 1.8-.9 2.7-1.4 3.5-2.3 5.7-6.2 5.7-10.4.4 1.1 2.1 2.2 3 3 1.3 1.1 2.6 2 4.1 2.9 2.8 1.7 6.1 2.4 9 4 2.8 1.6 5.8 2.9 8.9 3.8-2.8 5.8-5.5 11.9-7.8 17.9-1.2 3-2.3 5.8-3.6 8.7-1.5 3.4-2.6 6.8-4.5 10.1-1.8 3-3.7 5.9-5.1 9.1z" style="fill:url(#SVGID_14_)"/>
    <linearGradient id="SVGID_15_" gradientUnits="userSpaceOnUse" x1="172.296" y1="377.354" x2="112.782" y2="324.872" gradientTransform="matrix(1 0 0 -1 0 381.663)">
      <stop offset=".01" style="stop-color:#f1e1b9"/>
      <stop offset=".53" style="stop-color:#cab485"/>
      <stop offset="1" style="stop-color:#80694c"/>
    </linearGradient>
    <path d="M212.3 42c-1-2.2-2.3-4.4-3.8-6.3-3.4-4.4-7.6-8-12.3-10.8-3.8-2.3-7.7-2.9-11.7-4.4-9.2-3.4-18.7-6.7-28.6-7.1-4.4-.2-9.2-.4-13.7-.6-13.2-.5-25.9-3.9-38.3-7.8-2.9-.9-5.7-2.2-8.2-3.9-1-.7-2.4-.7-3.4 0l-.1-.1c.1.2.3.4.4.6 1.5 3 5 5.3 7.1 7.8 2.6 3 5 6.1 7.6 9.1 6 6.9 12.8 13 19.5 19.2 3.4 3.2 6.7 6.4 9.9 9.8 1.8 1.9 3.2 4 4.8 6.1 2.4 3.2 5.1 6.1 8 8.8 1.2 1.2 2.6 2.3 4 3.3.9.6 2 .9 2.6 1.8-.3-.4 4.3-5.8 5.2-6.4 2.6-1.9 4.7-4.3 7.4-6.1 7.3-4.5 15.7-6.9 24.3-6.9 2.2 0 20.9-2.7 19.3-6.1z" style="fill:url(#SVGID_15_)"/>
    <linearGradient id="SVGID_16_" gradientUnits="userSpaceOnUse" x1="220.279" y1="309.3" x2="203.76" y2="302.99" gradientTransform="matrix(1 0 0 -1 0 381.663)">
      <stop offset=".01" style="stop-color:#f1e1b9"/>
      <stop offset=".34" style="stop-color:#cab485"/>
      <stop offset="1" style="stop-color:#80694c"/>
    </linearGradient>
    <path d="M221.9 69.3c-.4-1.4-1.5-2.3-1.9-3.6-.4 0-.8.1-1.2.3-1.4.8-2.7 1.8-3.7 3.1l-.3.4c-1 1.3-1.8 2.7-2.5 4.2-.6 1.5-1.4 2.9-2.3 4.2l-.2.4c-.5.8-.6.7-.2 1.7.2.4.3.7.5 1.1s.3.7.5 1c.3.2.5.6.6.9.4-1.5 1-2.9 1.9-4.2.6-1.2 1.3-2.2 2.3-3.1 1.7-1.4 5.5-2.1 5.5 1.2.9-2.7 1.8-4.8 1-7.6zM221 71v-.7c.1.2.1.5 0 .7z" style="fill:url(#SVGID_16_)"/>
    <linearGradient id="SVGID_17_" gradientUnits="userSpaceOnUse" x1="224.4" y1="273.352" x2="204.844" y2="267.638" gradientTransform="matrix(1 0 0 -1 0 381.663)">
      <stop offset="0" style="stop-color:#cab485"/>
      <stop offset=".61" style="stop-color:#e4d2a8"/>
      <stop offset="1" style="stop-color:#f1e1b9"/>
    </linearGradient>
    <path d="M199.3 120.2c0-.8 0-1.5.1-1.7.1-1.5.5-3.1 1-4.5 1.3-3.2 2.9-6.8 5.5-8.9.7 2.5 5.3 2.5 6.7.9-2.5 2.9.6 5.7.1 8.6-2.3.2-4.4 2.2-6.1 3.6-2.4 2.1-5.3 3.8-7.6 5.9.2-1.2.3-2.5.3-3.9z" style="fill:url(#SVGID_17_)"/>
    <linearGradient id="SVGID_18_" gradientUnits="userSpaceOnUse" x1="-4.998" y1="279.33" x2="-2.862" y2="267.443" gradientTransform="matrix(1 0 0 -1 217.61 381.663)">
      <stop offset=".14" style="stop-color:#cab485"/>
      <stop offset=".28" style="stop-color:#d6c194"/>
      <stop offset=".52" style="stop-color:#e5d3a9"/>
      <stop offset=".76" style="stop-color:#eeddb5"/>
      <stop offset="1" style="stop-color:#f1e1b9"/>
    </linearGradient>
    <path d="M217.9 113.1c-1.3-.9-2.2-2.3-2.4-3.9-.1-.6-.1-1.6-.6-2-.6-.2-1.2-.3-1.9-.4-2.8-.5-2.7 6-1.1 7.3 1.2 1.1 6.8.5 6-1z" style="fill:url(#SVGID_18_)"/>
    <defs>
      <path id="SVGID_19_" d="M219.5 103.5c-.7.6-1.6.9-2.6.8-2.2-.5-4.5-.1-6.5.9-2 1.6-4.3 2.8-6.8 3.6-2.2.5 0-3.5.4-4.3 1.4-2.6 3.7-2.6 5.9-4.2 2.1-1.6 5.5-1.5 8.1-1.9.6-.2 1.3-.1 1.9.2.4.4.7.8.8 1.4.3 1.2-.1 2.6-1.2 3.5z"/>
    </defs>
    <clipPath id="SVGID_20_">
      <use xlink:href="#SVGID_19_" style="overflow:visible"/>
    </clipPath>
    <g style="clip-path:url(#SVGID_20_)">
      <path class="st20" d="M201.5 98.2h19.6v11.1h-19.6z"/>
      <path class="st20" d="M212.6 102.2c3.4-1.3 7.2-1.6 10.7-.9H222v8.9h-20.3v5.5c-1.7-4.8 3.2-10.8 10.9-13.5z"/>
      <path class="st21" d="M212.6 102.3c3.4-1.3 7.1-1.6 10.6-.9H222v8.8h-20.2v5.4c-1.6-4.7 3.2-10.7 10.8-13.3z"/>
      <path class="st22" d="M212.7 102.4c3.3-1.2 7-1.5 10.5-.9h-1.1v8.7H202v5.3c-1.6-4.6 3.2-10.5 10.7-13.1z"/>
      <path class="st23" d="M212.7 102.5c3.3-1.2 6.9-1.5 10.3-.9h-1v8.6h-19.8v5.3c-1.6-4.6 3.1-10.4 10.5-13z"/>
      <path class="st24" d="M212.7 102.6c3.3-1.2 6.8-1.5 10.2-.9h-.9v8.4h-19.6v5.2c-1.6-4.4 3.1-10.1 10.3-12.7z"/>
      <path class="st25" d="M212.8 102.8c7.2-2.5 14.3-.9 15.9 3.5H222v3.9h-19.4v5.1c-1.6-4.4 3-10.1 10.2-12.5z"/>
      <path class="st26" d="M212.8 102.9c7.1-2.5 14.1-.9 15.6 3.5H222v3.9h-19.3v5.1c-1.5-4.5 3.1-10 10.1-12.5z"/>
      <path class="st27" d="M212.9 103c6.9-2.4 13.9-.9 15.4 3.4H222v3.8h-19.1v5c-1.5-4.3 3-9.8 10-12.2z"/>
      <path class="st28" d="M212.9 103.1c6.9-2.4 13.7-.9 15.2 3.4H222v3.7h-18.9v4.9c-1.5-4.2 2.9-9.6 9.8-12z"/>
      <path class="st28" d="M213 103.2c6.8-2.4 13.5-.9 15 3.4h-6v3.7h-18.7v4.9c-1.5-4.3 2.8-9.6 9.7-12z"/>
      <path class="st29" d="M213 103.3c6.7-2.3 13.3-.8 14.7 3.3H222v3.6h-18.6v4.9c-1.4-4.2 2.9-9.5 9.6-11.8z"/>
      <path class="st30" d="M213 103.4c6.6-2.3 13.1-.8 14.5 3.3H222v3.5h-18.3v4.7c-1.5-4 2.7-9.2 9.3-11.5z"/>
      <path class="st31" d="M213.1 103.5c6.5-2.3 12.9-.8 14.3 3.2H222v3.5h-18.2v4.7c-1.4-4 2.8-9.1 9.3-11.4z"/>
      <path class="st32" d="M213.1 103.7c6.4-2.2 12.7-.8 14.1 3.1H222v3.4h-18v4.6c-1.4-3.9 2.7-8.9 9.1-11.1z"/>
      <path class="st33" d="M213.2 103.8c6.3-2.2 12.5-.8 13.9 3.1h-5v3.4h-17.9v4.6c-1.4-4 2.7-9 9-11.1z"/>
      <path class="st34" d="M213.2 103.9c6.2-2.1 12.3-.8 13.6 3.1H222v3.3h-17.6v4.5c-1.4-3.9 2.6-8.8 8.8-10.9z"/>
      <path class="st35" d="M213.2 104c6.1-2.1 12.1-.8 13.4 3H222v3.2h-17.5v4.4c-1.3-3.7 2.7-8.5 8.7-10.6z"/>
      <path class="st35" d="M213.3 104.1c6-2.1 11.9-.7 13.2 3H222v3.2h-17.3v4.4c-1.2-3.8 2.6-8.5 8.6-10.6z"/>
      <path class="st36" d="M213.3 104.2c5.9-2 11.7-.7 13 2.9H222v3.1h-17.1v4.3c-1.2-3.6 2.5-8.2 8.4-10.3z"/>
      <path class="st37" d="M213.3 104.3c5.8-2 11.5-.7 12.7 2.8h-4v3h-16.9v4.2c-1.2-3.4 2.4-8 8.2-10z"/>
      <path class="st38" d="M213.4 104.4c5.7-2 11.3-.7 12.5 2.8H222v3h-16.7v4.2c-1.2-3.5 2.4-8 8.1-10z"/>
      <path class="st39" d="M213.4 104.6c5.5-1.9 11.1-.7 12.3 2.8H222v2.9h-16.6v4.2c-1.1-3.6 2.4-8 8-9.9z"/>
      <path class="st39" d="M213.5 104.7c5.5-1.9 10.9-.7 12.1 2.8H222v2.8h-16.4v4c-1.1-3.4 2.4-7.7 7.9-9.6z"/>
      <path class="st40" d="M213.5 104.8c5.4-1.9 10.7-.7 11.9 2.6 1.2 3.3-2.3 7.6-7.7 9.4v-6.6h-11.9v4c-1.1-3.3 2.3-7.6 7.7-9.4z"/>
      <path class="st41" d="M213.5 104.9c5.3-1.8 10.5-.7 11.6 2.6 1.1 3.3-2.2 7.4-7.5 9.3v-6.5H206v3.9c-1.1-3.3 2.3-7.4 7.5-9.3z"/>
      <path class="st42" d="M213.6 105c5.2-1.8 10.3-.7 11.4 2.6 1.1 3.2-2.2 7.3-7.4 9.1v-6.4h-11.4v3.9c-1.1-3.3 2.2-7.4 7.4-9.2z"/>
      <path class="st43" d="M213.6 105.1c5.1-1.8 10.1-.6 11.2 2.5s-2.1 7.1-7.2 8.9v-6.3h-11.2v3.8c-1.1-3.1 2.2-7.1 7.2-8.9z"/>
      <path class="st44" d="M213.7 105.2c5-1.7 9.9-.6 11 2.5 1.1 3.1-2.1 6.9-7.1 8.7v-6.2h-11v3.7c-1.1-3 2.1-6.9 7.1-8.7z"/>
      <path d="M213.7 105.4c4.9-1.7 9.7-.6 10.7 2.4s-2.1 6.9-6.9 8.5v-6.1h-10.8v3.7c-1-3 2.1-6.9 7-8.5z" style="fill:#dcc99e"/>
      <path class="st46" d="M213.7 105.5c4.8-1.7 9.5-.6 10.5 2.4s-2 6.7-6.8 8.3v-6h-10.5v3.6c-1-2.9 2-6.7 6.8-8.3z"/>
      <path class="st47" d="M213.8 105.6c4.7-1.6 9.3-.6 10.3 2.3s-2 6.6-6.7 8.2v-5.9h-10.2v3.5c-1.1-2.8 1.9-6.5 6.6-8.1z"/>
      <path class="st48" d="M213.8 105.7c4.6-1.6 9.1-.6 10.1 2.3s-1.9 6.4-6.5 8v-5.7h-10.1v3.5c-1-2.9 1.9-6.5 6.5-8.1z"/>
      <path class="st48" d="M213.9 105.8c4.5-1.6 8.9-.6 9.9 2.2s-1.9 6.3-6.4 7.9v-5.6h-9.9v3.5c-1-2.9 1.9-6.5 6.4-8z"/>
      <path class="st49" d="M213.9 105.9c4.4-1.5 8.7-.6 9.7 2.2 1 2.7-1.9 6.1-6.2 7.7v-5.5h-9.7v3.4c-1-2.8 1.8-6.3 6.2-7.8z"/>
      <path class="st50" d="M213.9 106c4.3-1.5 8.5-.6 9.4 2.1.9 2.7-1.8 6-6.1 7.5v-5.4h-9.4v3.3c-.9-2.6 1.8-6 6.1-7.5z"/>
      <path class="st51" d="M214 106.1c4.2-1.5 8.3-.5 9.2 2.1.9 2.6-1.8 5.9-5.9 7.3v-5.3H208v3.2c-.8-2.5 1.8-5.8 6-7.3z"/>
      <path class="st52" d="M214 106.2c4.1-1.4 8.1-.5 9 2 .9 2.5-1.7 5.7-5.8 7.1v-5.2h-9v3.2c-.9-2.4 1.7-5.6 5.8-7.1z"/>
      <path class="st53" d="M214.1 106.4c4-1.4 7.9-.5 8.8 2 .9 2.5-1.7 5.5-5.7 6.9v-5h-8.8v3.1c-.9-2.5 1.7-5.7 5.7-7z"/>
      <path class="st54" d="M214.1 106.5c3.9-1.4 7.7-.5 8.5 1.9.8 2.4-1.6 5.4-5.5 6.8v-5h-8.5v3c-.9-2.3 1.6-5.4 5.5-6.7z"/>
      <path class="st55" d="M214.1 106.6c3.8-1.3 7.5-.5 8.3 1.9.8 2.3-1.6 5.3-5.4 6.7v-4.9h-8.3v3c-.8-2.4 1.7-5.4 5.4-6.7z"/>
      <path class="st56" d="M214.1 106.7c3.7-1.3 7.3-.5 8.1 1.8.8 2.3-1.6 5.2-5.2 6.4v-4.7h-8v2.9c-.9-2.2 1.5-5.1 5.1-6.4z"/>
      <path class="st57" d="M214.2 106.8c3.6-1.2 7.1-.5 7.9 1.8.8 2.2-1.5 5-5.1 6.3v-4.6h-7.9v2.9c-.7-2.3 1.5-5.1 5.1-6.4z"/>
      <path class="st58" d="M214.2 106.9c3.5-1.2 6.9-.4 7.6 1.7.7 2.1-1.5 4.9-4.9 6.1v-4.5h-7.7v2.8c-.6-2.1 1.6-4.8 5-6.1z"/>
      <path d="M214.3 107c3.4-1.2 6.7-.4 7.4 1.7s-1.4 4.7-4.8 5.9v-4.4h-7.4v2.8c-.7-2.1 1.4-4.8 4.8-6z" style="fill:#d3be8f"/>
      <path class="st60" d="M214.3 107.1c3.3-1.1 6.5-.4 7.2 1.6s-1.4 4.6-4.7 5.7v-4.3h-7.2v2.7c-.6-1.9 1.4-4.5 4.7-5.7z"/>
      <path class="st60" d="M214.4 107.3c3.2-1.1 6.3-.4 6.9 1.6s-1.4 4.5-4.5 5.5v-4.2h-6.9v2.6c-.7-1.9 1.3-4.4 4.5-5.5z"/>
      <path class="st61" d="M214.4 107.4c3.1-1.1 6.1-.4 6.8 1.5s-1.3 4.3-4.4 5.4v-4H210v2.5c-.6-1.9 1.3-4.4 4.4-5.4z"/>
      <path class="st62" d="M214.4 107.5c3-1 5.9-.4 6.5 1.5.6 1.8-1.2 4.2-4.2 5.2v-3.9h-6.6v2.5c-.5-1.9 1.4-4.3 4.3-5.3z"/>
      <path class="st63" d="M214.5 107.6c2.9-1 5.7-.4 6.3 1.4s-1.2 4-4.1 5v-3.8h-6.3v2.4c-.6-1.8 1.2-4 4.1-5z"/>
      <path class="st64" d="M214.5 107.7c2.8-1 5.5-.4 6.1 1.4s-1.2 3.9-3.9 4.9v-3.7h-6.1v2.3c-.7-1.8 1.2-3.9 3.9-4.9z"/>
      <path class="st65" d="M214.6 107.8c2.7-.9 5.3-.3 5.9 1.3.6 1.7-1.1 3.7-3.8 4.7v-3.6h-5.9v2.3c-.6-1.7 1.1-3.7 3.8-4.7z"/>
      <path class="st65" d="M214.6 107.9c2.6-.9 5.1-.3 5.7 1.3s-1.1 3.6-3.7 4.5v-3.5H211v2.2c-.6-1.6 1-3.6 3.6-4.5z"/>
      <path class="st66" d="M214.6 108.1c2.5-.9 4.9-.3 5.4 1.2s-1 3.5-3.5 4.3v-3.4h-5.4v2.1c-.5-1.5 1.1-3.4 3.5-4.2z"/>
      <path d="M214.7 108.2c2.4-.8 4.7-.3 5.2 1.2s-1 3.3-3.4 4.2v-3.3h-5.2v2.1c-.5-1.6 1-3.4 3.4-4.2z" style="fill:#ccb586"/>
      <path class="st68" d="M214.7 108.3c2.3-.8 4.5-.3 5 1.1.5 1.4-1 3.2-3.2 4v-3.1h-5v2c-.5-1.5.9-3.2 3.2-4z"/>
    </g>
    <linearGradient id="SVGID_21_" gradientUnits="userSpaceOnUse" x1=".445" y1="278.787" x2="-19.152" y2="266.776" gradientTransform="matrix(1 0 0 -1 217.61 381.663)">
      <stop offset=".28" style="stop-color:#cab485"/>
      <stop offset=".47" style="stop-color:#d0bb8d"/>
      <stop offset=".75" style="stop-color:#dfcda1"/>
      <stop offset="1" style="stop-color:#f1e1b9"/>
    </linearGradient>
    <path d="M219.9 102.9c-2.8 2.1-6.5-.2-9.6 2.2-2.2 1.6-4.6 3-7.2 4 1.8.1 3.7-.1 5.4-.8.9-.4 1.8-.8 2.8-1 1.2-.2 2.5.2 3.7 0 2.3-.6 4.2-2.2 4.9-4.4z" style="fill:url(#SVGID_21_)"/>
    <defs>
      <path id="SVGID_22_" d="M215.1 126.5c2.1-.2 5.2-.3 4.9-3.3-.2-1.8-2.4-3.2-3.8-3.7-3-1-7.4.5-10.1 2-1.9 1.1-6.5 2-7.2 4.4 4.7 4.3 10.7 1.2 16.2.6z"/>
    </defs>
    <clipPath id="SVGID_23_">
      <use xlink:href="#SVGID_22_" style="overflow:visible"/>
    </clipPath>
    <g style="clip-path:url(#SVGID_23_)">
      <path class="st20" d="M198.9 118.5h21.3v11.7h-21.3z"/>
      <path class="st20" d="M214.2 125.7c-10.8 2-20.6-1.7-22-8.2l5.7.1h23.2v2.1h6.2c-3.7 3.1-8.2 5.2-13.1 6z"/>
      <path class="st20" d="M214.2 125.5c-10.7 2-20.4-1.7-21.7-8.1l5.4.2h23.2v2h6c-3.6 3.1-8.1 5.2-12.9 5.9z"/>
      <path class="st20" d="M214.1 125.4c-10.5 2-20.1-1.6-21.4-8l5.1.2h23.3v1.9h5.8c-3.6 3.1-8.1 5.1-12.8 5.9z"/>
      <path class="st20" d="M214.1 125.2c-10.4 1.9-19.8-1.6-21.1-7.9l4.9.2h23.3v1.9h5.5c-3.6 3.1-7.9 5.1-12.6 5.8z"/>
      <path class="st20" d="M214.1 125.1c-10.2 1.9-19.6-1.6-20.8-7.8l4.6.3h23.2v1.8h5.4c-3.5 3-7.8 4.9-12.4 5.7z"/>
      <path class="st20" d="M214.1 124.9c-10.1 1.9-19.3-1.5-20.6-7.7l4.4.3h23.2v1.7h5.2c-3.5 3-7.7 5-12.2 5.7z"/>
      <path class="st20" d="M214.1 124.8c-9.9 1.8-19-1.5-20.2-7.6l4.2.4h23.1v1.6h5c-3.5 2.9-7.7 4.9-12.1 5.6z"/>
      <path class="st20" d="M214 124.6c-9.8 1.8-18.7-1.5-19.9-7.5l3.9.4h23.2v1.6h4.8c-3.5 2.9-7.6 4.8-12 5.5z"/>
      <path class="st71" d="M214 124.5c-9.7 1.8-18.5-1.5-19.7-7.4l3.6.5h23.2v1.5h4.5c-3.2 2.8-7.3 4.6-11.6 5.4z"/>
      <path class="st21" d="M214 124.3c-9.5 1.8-18.2-1.5-19.4-7.2l3.4.5h23.3v1.4h4.4c-3.5 2.8-7.5 4.6-11.7 5.3z"/>
      <path class="st21" d="M213.9 124.1c-9.4 1.7-17.9-1.4-19.1-7.1l3.1.6h23.2v1.3h4.2c-3.2 2.8-7.2 4.6-11.4 5.2z"/>
      <path class="st21" d="M213.9 124c-9.3 1.7-17.7-1.4-18.8-7l2.8.6h23.3v1.2h3.9c-3.2 2.7-7.1 4.5-11.2 5.2z"/>
      <path class="st72" d="M213.9 123.8c-9.1 1.7-17.4-1.4-18.5-6.9l2.6.7h23.2v1.2h3.7c-3.1 2.6-7 4.4-11 5z"/>
      <path class="st22" d="M213.8 123.7c-9 1.7-17.1-1.4-18.2-6.8l2.3.7h23.2v1.1h3.5c-3 2.6-6.8 4.3-10.8 5z"/>
      <path class="st22" d="M213.8 123.5c-8.8 1.6-16.9-1.4-17.9-6.7l2.1.8h23.2v1h3.3c-3.1 2.6-6.8 4.3-10.7 4.9z"/>
      <path class="st23" d="M213.8 123.4c-8.7 1.6-16.6-1.4-17.7-6.6l1.8.8h23.2v.9h3.1c-2.9 2.6-6.5 4.3-10.4 4.9z"/>
      <path class="st73" d="M213.7 123.2c-8.5 1.6-16.3-1.3-17.4-6.5l1.6.9h23.2v.9h2.9c-2.9 2.4-6.4 4.1-10.3 4.7z"/>
      <path class="st24" d="M213.7 123.1c-8.3 1.6-16-1.3-17.1-6.4l1.4.9h23.2v.8h2.8c-3 2.4-6.5 4-10.3 4.7z"/>
      <path class="st24" d="M213.7 122.9c-8.3 1.5-15.8-1.3-16.8-6.3l1.1 1h23.2l5.5-6.5c1.1 5-4.8 10.3-13 11.8z"/>
      <path class="st25" d="M213.6 122.8c-8.1 1.5-15.5-1.3-16.5-6.2l.8 1h23.2l5.4-6.4c1 4.8-4.7 10-12.9 11.6z"/>
      <path class="st74" d="M213.6 122.6c-8 1.5-15.3-1.2-16.2-6.1l.6 1.1h23.2l5.1-6.4c1 4.8-4.7 9.9-12.7 11.4z"/>
      <path class="st26" d="M213.6 122.4c-7.8 1.4-15-1.2-15.9-6l.3 1.1h23.2l4.8-6.4c1 4.9-4.6 9.9-12.4 11.3z"/>
      <path class="st27" d="M213.5 122.3c-7.8 1.4-14.7-1.2-15.6-5.8v1.1h23.3l4.6-6.3c.9 4.6-4.6 9.6-12.3 11z"/>
      <path class="st28" d="M213.5 122.1c-7.6 1.4-14.4-1.2-15.4-5.7v1.2h23l4.3-6.3c1 4.6-4.4 9.4-11.9 10.8z"/>
      <path class="st28" d="M213.5 122c-7.4 1.4-14.2-1.2-15.1-5.6v1.2h22.8l4-6.3c1 4.6-4.3 9.3-11.7 10.7z"/>
      <path class="st28" d="M213.4 121.8c-7.3 1.4-13.9-1.1-14.8-5.5v1.3h22.5l3.8-6.2c1 4.4-4.2 9.1-11.5 10.4z"/>
      <path class="st29" d="M213.4 121.7c-7.1 1.4-13.6-1.1-14.5-5.4v1.4h22.2l3.6-6.1c.9 4.2-4.2 8.8-11.3 10.1z"/>
      <path class="st30" d="M213.4 121.5c-6.9 1.3-13.4-1.1-14.2-5.3v1.4h22l3.3-6.1c.8 4.2-4.1 8.7-11.1 10z"/>
      <path class="st31" d="M213.4 121.4c-6.9 1.3-13.1-1.1-13.9-5.2v1.4h21.7l3.1-6c.8 4.1-4.1 8.5-10.9 9.8z"/>
      <path class="st32" d="M213.3 121.2c-6.7 1.2-12.8-1-13.6-5.1v1.5h21.5l2.8-6c.8 4.1-4 8.4-10.7 9.6z"/>
      <path class="st33" d="M213.3 121c-6.6 1.2-12.5-1-13.3-5v1.5h21.2l2.5-5.9c.8 4-3.8 8.2-10.4 9.4z"/>
      <path class="st34" d="M213.3 120.9c-6.4 1.2-12.3-1-13.1-4.9v1.6h21l2.3-5.9c.8 3.9-3.8 8-10.2 9.2z"/>
      <path class="st35" d="M213.2 120.7c-6.3 1.2-12-1-12.8-4.8v1.6h20.7l2-5.8c.9 3.9-3.6 7.9-9.9 9z"/>
      <path d="M213.2 120.6c-6.1 1.1-11.7-1-12.5-4.7v1.7h20.5l1.8-5.8c.7 3.7-3.7 7.7-9.8 8.8z" style="fill:#e3d4a8"/>
      <path d="M213.2 120.4c-6 1.1-11.5-.9-12.2-4.6v1.7h20.2l1.5-5.7c.7 3.7-3.5 7.5-9.5 8.6z" style="fill:#e4d3a7"/>
      <path class="st38" d="M213.1 120.3c-5.9 1.1-11.2-.9-11.9-4.5v1.8h20l1.3-5.7c.7 3.5-3.5 7.4-9.4 8.4z"/>
      <path class="st77" d="M213.1 120.1c-5.7 1.1-10.9-.9-11.6-4.3v1.8h19.7l1-5.6c.7 3.4-3.4 7.1-9.1 8.1z"/>
      <path class="st77" d="M213.1 120c-5.5 1-10.7-.9-11.3-4.2v1.9h19.4l.7-5.5c.7 3.2-3.3 6.7-8.8 7.8z"/>
      <path class="st41" d="M213 119.8c-5.4 1-10.4-.8-11.1-4.2v1.9h19.2l.5-5.5c.7 3.3-3.1 6.8-8.6 7.8z"/>
      <path class="st43" d="M213 119.7c-5.3 1-10.1-.8-10.8-4v2h18.9l.2-5.5c.8 3.1-3 6.5-8.3 7.5z"/>
      <path class="st44" d="M213 119.5c-5.2 1-9.9-.8-10.5-3.9v2h18.7v-5.5c.6 3.1-3.1 6.4-8.2 7.4z"/>
      <path class="st78" d="M212.9 119.4c-5 .9-9.6-.8-10.2-3.8v2h18.2v-5.4c.6 3-2.9 6.2-8 7.2z"/>
      <path class="st47" d="M212.9 119.3c-4.9.9-9.3-.7-9.9-3.7v2.1h17.6v-5.4c.7 2.9-2.8 6-7.7 7z"/>
      <path class="st48" d="M212.9 119c-4.7.9-9-.7-9.6-3.6v2.1h17.1v-5.3c.6 2.9-2.8 6-7.5 6.8z"/>
      <path class="st50" d="M212.8 118.9c-4.6.9-8.8-.7-9.3-3.5v2.2h16.6v-5.3c.6 2.8-2.7 5.7-7.3 6.6z"/>
      <path class="st52" d="M212.8 118.7c-4.5.8-8.5-.7-9-3.4v2.2h16.1v-5.3c.5 2.9-2.6 5.7-7.1 6.5z"/>
      <path class="st53" d="M212.8 118.6c-4.3.8-8.2-.7-8.8-3.3v2.3h15.6v-5.2c.6 2.6-2.5 5.4-6.8 6.2z"/>
      <path class="st55" d="M212.7 118.4c-4.2.8-8-.7-8.5-3.2v2.3h15.1v-5.1c.6 2.6-2.4 5.2-6.6 6z"/>
      <path class="st57" d="M212.7 118.3c-4 .7-7.7-.6-8.2-3.1v2.4h14.6v-5.1c.6 2.4-2.3 5-6.4 5.8z"/>
      <path d="M212.7 118.1c-3.9.7-7.4-.6-7.9-3v2.4h14.1v-5c.5 2.4-2.3 4.9-6.2 5.6z" style="fill:#d1bc8f"/>
      <path class="st80" d="M212.7 118c-3.7.7-7.2-.6-7.6-2.8v2.5h13.6v-5c.4 2.2-2.3 4.6-6 5.3z"/>
      <path class="st62" d="M212.6 117.9c-3.6.7-6.9-.6-7.3-2.8v2.5h13.1v-5c.4 2.2-2.2 4.5-5.8 5.3z"/>
      <path class="st64" d="M212.6 117.6c-3.5.6-6.6-.5-7-2.6v2.6H218v-4.9c.5 2.1-1.9 4.3-5.4 4.9z"/>
      <path class="st66" d="M212.6 117.5c-3.3.6-6.3-.5-6.8-2.5v2.6l6.8-.1z"/>
      <path class="st68" d="M212.5 117.3c-3.2.6-6.1-.5-6.5-2.4v2.7h6.5v-.3z"/>
    </g>
    <linearGradient id="SVGID_24_" gradientUnits="userSpaceOnUse" x1="207.631" y1="247.067" x2="209.046" y2="275.111" gradientTransform="matrix(1 0 0 -1 0 381.663)">
      <stop offset="0" style="stop-color:#f1e1b9"/>
      <stop offset=".58" style="stop-color:#cab485"/>
      <stop offset=".82" style="stop-color:#9e8763"/>
      <stop offset="1" style="stop-color:#80694c"/>
    </linearGradient>
    <path d="M217.9 114.2c-.6 0-1.2.3-1.7.4-.6.1-1.1.2-1.7.2-1.2-.1-2.3.1-3.4.4-5 2.2-9 5.9-14.4 7.4.2 0 1.7.5 2.1.6 1 .1 1.9.1 2.9 0 4.8-.6 11.9-6.2 16.6-2.8.4.4.9.7 1.4 1-.1-.7-.1-1.3.1-2s.4-1.4.4-2.1c.2-1-.2-2.1-.9-2.9-.5-.2-1-.3-1.4-.2z" style="fill:url(#SVGID_24_)"/>
    <linearGradient id="SVGID_25_" gradientUnits="userSpaceOnUse" x1="223.566" y1="269.538" x2="149.892" y2="216.377" gradientTransform="matrix(1 0 0 -1 0 381.663)">
      <stop offset=".28" style="stop-color:#cab485"/>
      <stop offset=".47" style="stop-color:#d0bb8d"/>
      <stop offset=".75" style="stop-color:#dfcda1"/>
      <stop offset="1" style="stop-color:#f1e1b9"/>
    </linearGradient>
    <path d="M148.8 124.7c.2-2.9 1.2-5.5 3.8-6.5 6.2-2.5 5.9 33.7 6 37 .7 17.1-.3 34.7-6.1 50.9-1 2.8-2.8 6-5.8 6-3.3 0-5-3.8-5.8-6.9-2.4-9.7-4.7-21.4-3.4-31.4 1.1-7.8 6.6-13.9 8.6-21.3 1.6-5.6 2.7-11.3 3.1-17.1.1-2.6-.7-7-.4-10.7z" style="fill:url(#SVGID_25_)"/>
    <linearGradient id="SVGID_26_" gradientUnits="userSpaceOnUse" x1="51.941" y1="188.279" x2="191.302" y2="306.211" gradientTransform="matrix(1 0 0 -1 0 381.663)">
      <stop offset=".12" style="stop-color:#009cd8"/>
      <stop offset=".77" style="stop-color:#cab485"/>
      <stop offset=".82" style="stop-color:#c4ae80"/>
      <stop offset=".88" style="stop-color:#b29c73"/>
      <stop offset=".95" style="stop-color:#967f5d"/>
      <stop offset="1" style="stop-color:#80694c"/>
    </linearGradient>
    <path d="M157 64.8c-.8.5-1.6.5-2.3 1.4-2.5 3-6.7 8.5-9.4 12.6-3.5 4.9-6.7 10.1-9.6 15.3-3 5.9-6 10.5-8.7 16.6-2.3 5.1-6.5 15.5-5.2 18.4 1.1 2.9 1.7 6.1 1.6 9.2 0 5.6 3.4 9.9 4.5 15.4.8 3.9.9 9.7 3.2 12.9.4-.9.7-1.9.9-2.9.9-3.3 2.5-6.3 4.6-8.9 2-2.8 2.9-5.1 5.9-7.1 4.4-2.9 9.4-3.5 13.1-7.4 2-2.1 2.8-6.1 3.8-8.8 2.3-5.5 3.2-11.6 2.4-17.5-.2-1.4-4.7-26.5-5.3-30.1-.2-1.2-1.2-2.5-1-3.7.2-1.2 1.9-2.4 2-3.7s0-2.9-.1-4.3c0-.8-.8-7.1-.4-7.4z" style="fill:url(#SVGID_26_)"/>
    <linearGradient id="SVGID_27_" gradientUnits="userSpaceOnUse" x1="107.743" y1="247.246" x2="246.118" y2="232.586" gradientTransform="matrix(1 0 0 -1 0 381.663)">
      <stop offset="0" style="stop-color:#00b5d1"/>
      <stop offset=".04" style="stop-color:#29bccd"/>
      <stop offset=".09" style="stop-color:#57c5c8"/>
      <stop offset=".14" style="stop-color:#81ccc4"/>
      <stop offset=".19" style="stop-color:#a3d3c1"/>
      <stop offset=".25" style="stop-color:#c0d8be"/>
      <stop offset=".31" style="stop-color:#d6dcbc"/>
      <stop offset=".38" style="stop-color:#e5dfba"/>
      <stop offset=".46" style="stop-color:#eee0b9"/>
      <stop offset=".57" style="stop-color:#f1e1b9"/>
      <stop offset=".57" style="stop-color:#efe1b9"/>
      <stop offset=".62" style="stop-color:#b8d7bf"/>
      <stop offset=".67" style="stop-color:#87cec4"/>
      <stop offset=".72" style="stop-color:#5ec6c8"/>
      <stop offset=".78" style="stop-color:#3cc0cb"/>
      <stop offset=".83" style="stop-color:#21bbce"/>
      <stop offset=".88" style="stop-color:#0fb8d0"/>
      <stop offset=".94" style="stop-color:#04b6d1"/>
      <stop offset="1" style="stop-color:#00b5d1"/>
    </linearGradient>
    <path d="M155.9 74.9c-.1 7.5 2.3 13.9 4.3 25.7 1.2 7.4 2.2 11.7 2.3 19.2.2 8.8-3.8 17-6.3 25.3-2.8 9.5-7.6 18.3-10.4 27.7-1 3.9-2.3 7.7-3.8 11.4-2 4.7-6 7.5-10.4 9.8-3.8 1.9-7.3 4.6-11.1 6.4-5.7-18.2-11.7-36.4-17.6-54.5l37.4-15.5c5-2.1 16-4.7 18.8-9.3 2.3-4 .6-15.7-.4-22.9-.7-4.6-1.4-9.4-2.6-14.2-.6-2.2-2.7-7.6-.2-9.1z" style="fill:url(#SVGID_27_)"/>
    <linearGradient id="SVGID_28_" gradientUnits="userSpaceOnUse" x1="200.517" y1="296.621" x2="216.259" y2="295.553" gradientTransform="matrix(1 0 0 -1 0 381.663)">
      <stop offset=".55" style="stop-color:#cab485"/>
      <stop offset=".67" style="stop-color:#d0bb8d"/>
      <stop offset=".85" style="stop-color:#dfcda1"/>
      <stop offset="1" style="stop-color:#f1e1b9"/>
    </linearGradient>
    <path d="M216 89c-.4.1-.8 0-1.2-.1-1.3-2-2.6-3.9-3.7-6 1.3 1 2.8 1.6 4.4 1.7 1.2.2 2.4.2 3.5-.3.2 1.9-1 4.4-3 4.7z" style="fill:url(#SVGID_28_)"/>
    <linearGradient id="SVGID_29_" gradientUnits="userSpaceOnUse" x1="215.522" y1="329.999" x2="150.21" y2="306.227" gradientTransform="matrix(1 0 0 -1 0 381.663)">
      <stop offset="0" style="stop-color:#cab485"/>
      <stop offset="1" style="stop-color:#80694c"/>
    </linearGradient>
    <path d="M142.3 85.1c3.4-1.5 6.3-3.9 8.3-7 1-1.6 1.9-3.3 2.8-5 2.1-3.7 2.1-8.9 7.3-9.9 1.6-.1 3.2.2 4.7.8 2.5.6 5 .6 7.2 1.9.5.2 2.6 2.1 2.8 2.1-6 .5-10 5.4-14.1 9.3-4 4.2-9.5 6.8-15.3 7.3-1.2.1-2.3.2-3.7.5z" style="fill:url(#SVGID_29_)"/>
    <linearGradient id="SVGID_30_" gradientUnits="userSpaceOnUse" x1="156.293" y1="281.07" x2="94.629" y2="258.615" gradientTransform="matrix(1 .03 .03 -1 48.523 333.053)">
      <stop offset="0" style="stop-color:#cab485"/>
      <stop offset="1" style="stop-color:#80694c"/>
    </linearGradient>
    <path d="m205.7 57.5 3.4-2.7c-.7.5-1.5.9-2.3 1.1.2-.4.5-.8.7-1.3-1.6.2-3.1.6-4.5 1.4l-.9.4c-1.5 0-2.9.1-4.4.3-4 .8-6.4 3.9-9.7 6-6.5 4.2-13.7 11.4-22.1 10.1 5.3 1.2 10.8.7 15.7-1.5 8.6-.6 19-6.7 24.1-13.8z" style="fill:url(#SVGID_30_)"/>
    <linearGradient id="SVGID_31_" gradientUnits="userSpaceOnUse" x1="305.645" y1="192.405" x2="74.469" y2="136.497" gradientTransform="matrix(1 0 0 -1 0 381.663)">
      <stop offset=".01" style="stop-color:#f1e1b9"/>
      <stop offset=".09" style="stop-color:#e8d7ae"/>
      <stop offset=".22" style="stop-color:#d2bd8f"/>
      <stop offset=".25" style="stop-color:#cab485"/>
      <stop offset=".28" style="stop-color:#afb48f"/>
      <stop offset=".34" style="stop-color:#6ab4a9"/>
      <stop offset=".43" style="stop-color:#00b5d1"/>
      <stop offset=".44" style="stop-color:#17b5c8"/>
      <stop offset=".47" style="stop-color:#56b5b1"/>
      <stop offset=".49" style="stop-color:#88b49e"/>
      <stop offset=".51" style="stop-color:#acb490"/>
      <stop offset=".53" style="stop-color:#c2b488"/>
      <stop offset=".54" style="stop-color:#cab485"/>
      <stop offset=".7" style="stop-color:#f1e1b9"/>
      <stop offset=".74" style="stop-color:#ebdab0"/>
      <stop offset=".91" style="stop-color:#d3be91"/>
      <stop offset="1" style="stop-color:#cab485"/>
    </linearGradient>
    <path d="M208.1 231.8H76.8V225h129.6c31.5-51.1 91-49.9 91.6-49.9v6.4c-22.6 1.4-64.6 9.8-86.5 50.1l-3.4.2z" style="fill:url(#SVGID_31_)"/>
    <radialGradient id="SVGID_32_" cx="232.454" cy="327.387" r="14.618" gradientTransform="matrix(.97 0 -.01 -1.01 -11.564 459.809)" gradientUnits="userSpaceOnUse">
      <stop offset="0" style="stop-color:#c8b38a"/>
      <stop offset=".15" style="stop-color:#d4c198"/>
      <stop offset=".41" style="stop-color:#e4d3aa"/>
      <stop offset=".69" style="stop-color:#eedeb5"/>
      <stop offset="1" style="stop-color:#f1e1b9"/>
    </radialGradient>
    <path d="M217.1 125.6c-1.2 0-2.4.1-3.6.3-2.9.4-5.7.9-8.7 1.2 1.6 1.6 1.2 2.8 1.6 4.6 3-.4 5.7-1.4 8.8-1.1 1.6.2 6.1.6 6.6 2.1 0-.7-.9-7.6-.8-7.6-1.2.4-2.5.6-3.9.5z" style="fill:url(#SVGID_32_)"/>
    <defs>
      <path id="SVGID_33_" d="M208.7 126c-1.9-.1-3.8 0-5.7.4-1.4.3-2.9.7-4.2 1.2-1.7 1.2.9 6.2.2 8.3 1.8-1.3 3.8-2.5 5.9-3.3 3.5-1.5 8.8-1.2 11.2-4 1.1-1.4 2.3-2.7 3.5-3.9-.8.8-3.6.7-4.8.7-1.9.1-3.8.4-5.6.6h-.5z"/>
    </defs>
    <clipPath id="SVGID_34_">
      <use xlink:href="#SVGID_33_" style="overflow:visible"/>
    </clipPath>
    <g style="clip-path:url(#SVGID_34_)">
      <path class="st20" d="M197 124.7h22.5v11.2H197z"/>
      <path class="st20" d="M198.5 131c-.5-2.5-.6-5-.4-7.5v.2h22.4v13.1h-15.3v6.6c-3.5-3.2-5.9-7.6-6.7-12.4z"/>
      <path class="st20" d="M198.7 131c-1-4.7-.5-9.5 1.4-13.9v6.6h20.5v13.1h-15.3v6.4c-3.4-3.2-5.8-7.5-6.6-12.2z"/>
      <path class="st20" d="M198.9 131c-1-4.6-.5-9.4 1.4-13.6v6.4h20.3v13.1h-15.2v6.2c-3.4-3.3-5.7-7.5-6.5-12.1z"/>
      <path class="st20" d="M199.1 130.9c-1-4.5-.5-9.2 1.3-13.4v6.3h20.1v13.1h-15v6c-3.3-3.3-5.6-7.4-6.4-12z"/>
      <path class="st20" d="M199.3 130.9c-1-4.4-.5-9.1 1.3-13.2v6.1h20v13.1h-14.9v5.8c-3.4-3.2-5.6-7.3-6.4-11.8z"/>
      <path class="st20" d="M199.5 130.9c-1-4.4-.5-8.9 1.3-13v5.9h19.8v13.1h-14.8v5.5c-3.3-3.1-5.5-7.1-6.3-11.5z"/>
      <path class="st20" d="M199.7 130.8c-.9-4.3-.5-8.8 1.2-12.8v5.8h19.6v13.1h-14.7v5.3c-3.2-3.1-5.3-7.1-6.1-11.4z"/>
      <path class="st20" d="M199.9 130.8c-.9-4.2-.5-8.6 1.2-12.6v5.5h19.4v13.1h-14.6v5.1c-3.1-3-5.2-6.9-6-11.1z"/>
      <path class="st20" d="M200.1 130.7c-.9-4.2-.5-8.6 1.2-12.5v5.4h19.2v13.1H206v4.9c-3.1-2.9-5.1-6.7-5.9-10.9z"/>
      <path class="st20" d="M200.2 130.7c-.9-4.1-.5-8.4 1.2-12.2v5.3h19v13.1H206v4.7c-2.9-3-5-6.8-5.8-10.9z"/>
      <path class="st20" d="M200.5 130.7c-.9-4-.5-8.2 1.2-12v5.1h18.9v13.1h-14.3v4.4c-3.1-2.9-5.1-6.6-5.8-10.6z"/>
      <path class="st20" d="M200.7 130.6c-.9-4-.5-8.1 1.2-11.8v4.9h18.7v13.1h-14.2v4.2c-3-2.8-5-6.4-5.7-10.4z"/>
      <path class="st20" d="M200.9 130.6c-.9-3.9-.5-8 1.1-11.6v4.8h18.5v13.1h-14.1v4c-2.9-2.8-4.8-6.4-5.5-10.3z"/>
      <path class="st20" d="M201.1 130.5c-.8-3.8-.4-7.8 1.1-11.4v4.6h18.3v2.3h3c1.7 8.4-2 16.2-8.2 17.4v-6.7h-8.8v3.8c-2.8-2.6-4.7-6.1-5.4-10z"/>
      <path d="M201.3 130.5c-.8-3.8-.5-7.7 1.1-11.2v4.5h18.1v2.5h2.8c1.7 8.3-1.9 15.9-8 17.1V137h-8.6v3.6c-2.8-2.8-4.7-6.3-5.4-10.1z" style="fill:#f1e2b8"/>
      <path class="st71" d="M201.5 130.4c-.8-3.7-.4-7.5 1.1-11v4.3h18v2.4h2.6c1.6 8.1-1.9 15.6-7.9 16.8v-6.1h-8.6v3.3c-2.7-2.5-4.5-5.9-5.2-9.7z"/>
      <path class="st21" d="M201.6 130.4c-.8-3.6-.4-7.4 1.1-10.8v4.2h17.8v2.4h2.4c1.6 7.9-1.9 15.3-7.7 16.5v-5.8h-8.3v3.1c-2.8-2.6-4.6-5.9-5.3-9.6z"/>
      <path class="st21" d="M201.9 130.4c-.8-3.5-.4-7.3 1-10.6v4h17.6v2.5h2.2c1.6 7.8-1.8 15-7.6 16.2V137h-8.2v2.9c-2.6-2.7-4.4-6-5-9.5z"/>
      <path class="st21" d="M202.1 130.4c-.8-3.5-.4-7.1 1-10.4v3.8h14.5v-6.7c2.6 2.5 4.3 5.7 5 9.2 1.5 7.7-1.8 14.8-7.4 15.9-5.8 1.1-11.6-4.2-13.1-11.8z"/>
      <path class="st72" d="M202.3 130.4c-.8-3.4-.4-7 1-10.2v3.6h14.2v-6.5c2.5 2.4 4.2 5.6 4.9 9 1.5 7.5-1.7 14.5-7.3 15.6s-11.3-4.1-12.8-11.5z"/>
      <path class="st72" d="M202.5 130.3c-.7-3.3-.4-6.8 1-10v3.5h13.9v-6.2c2.5 2.4 4.2 5.5 4.8 8.8 1.5 7.4-1.7 14.2-7.1 15.3s-11.1-4.1-12.6-11.4z"/>
      <path class="st22" d="M202.7 130.2c-.7-3.3-.4-6.7 1-9.7v3.3h13.6v-6c2.4 2.3 4.1 5.3 4.7 8.7 1.5 7.2-1.7 13.9-6.9 14.9s-11-4-12.4-11.2z"/>
      <path class="st23" d="M202.9 130.2c-.7-3.2-.4-6.5.9-9.5v3.1h13.3V118c2.4 2.3 4 5.2 4.6 8.5 1.4 7-1.7 13.6-6.9 14.6-5.1 1-10.5-3.8-11.9-10.9z"/>
      <path class="st23" d="M203.1 130.1c-.7-3.1-.4-6.4.9-9.4v3h13v-5.5c2.3 2.2 3.9 5.1 4.5 8.3 1.4 6.9-1.6 13.3-6.7 14.3s-10.3-3.8-11.7-10.7z"/>
      <path class="st73" d="M203.3 130.1c-.7-3.1-.4-6.3.9-9.2v2.8h12.7v-5.3c2.3 2.2 3.8 5 4.4 8.1 1.4 6.7-1.6 13-6.6 14s-10.1-3.7-11.4-10.4z"/>
      <path class="st24" d="M203.5 130.1c-.7-3-.3-6.1.9-9v2.6h12.5v-5.1c2.2 2.1 3.7 4.9 4.3 7.9 1.4 6.6-1.5 12.7-6.4 13.7s-10-3.6-11.3-10.1z"/>
      <path d="M203.7 130c-.6-2.9-.3-6 .9-8.8v2.5h12.2v-4.9c2.2 2.1 3.6 4.8 4.2 7.8 1.3 6.4-1.5 12.5-6.3 13.4-4.8.9-9.7-3.5-11-10z" style="fill:#eddeb4"/>
      <path class="st25" d="M203.9 130c-.6-2.9-.3-5.9.8-8.5v2.3h11.9v-4.7c2.2 2 3.6 4.7 4.2 7.6 1.3 6.3-1.5 12.1-6.1 13.1-4.7.8-9.6-3.5-10.8-9.8z"/>
      <path class="st74" d="M204.1 129.9c-1.2-6.1 1.4-11.8 6-12.7v6.6h6.5v-4.5c2.1 2 3.5 4.6 4 7.4 1.2 6.1-1.4 11.9-6 12.7-4.7.9-9.3-3.3-10.5-9.5z"/>
      <path class="st27" d="M204.3 129.9c-1.2-6 1.4-11.6 5.8-12.5v6.3h6.3v-4.2c2 1.9 3.4 4.5 3.9 7.2 1.2 6-1.4 11.6-5.8 12.5-4.4.9-9-3.3-10.2-9.3z"/>
      <path class="st93" d="M204.5 129.9c-1.2-5.9 1.4-11.3 5.7-12.1v6h6.2v-4c2 1.9 3.3 4.3 3.8 7 1.2 5.8-1.4 11.3-5.7 12.1-4.3.8-8.8-3.2-10-9z"/>
      <path class="st28" d="M204.7 129.8c-1.2-5.7 1.4-11 5.5-11.8 4.2-.8 8.6 3.1 9.7 8.8s-1.4 11-5.5 11.8c-4.2.9-8.6-3.1-9.7-8.8z"/>
      <path class="st28" d="M204.9 129.8c-1.1-5.5 1.3-10.7 5.4-11.5 4.1-.8 8.3 3 9.4 8.6 1.1 5.5-1.3 10.7-5.4 11.5-4.1.8-8.3-3.1-9.4-8.6z"/>
      <path class="st29" d="M205.1 129.7c-1.1-5.4 1.2-10.4 5.2-11.2 4-.8 8.1 3 9.2 8.3s-1.2 10.4-5.2 11.2c-4 .9-8.1-2.9-9.2-8.3z"/>
      <path class="st94" d="M205.3 129.7c-1.1-5.2 1.2-10.1 5.1-10.9 3.9-.8 7.9 2.9 8.9 8.1 1.1 5.2-1.2 10.1-5.1 10.9-3.8.8-7.9-2.9-8.9-8.1z"/>
      <path class="st95" d="M205.5 129.7c-1-5.1 1.2-9.8 5-10.6 3.8-.7 7.6 2.8 8.7 7.9 1 5.1-1.2 9.8-5 10.6-3.8.7-7.7-2.9-8.7-7.9z"/>
      <path d="M205.7 129.6c-1-4.9 1.2-9.5 4.8-10.2s7.4 2.8 8.4 7.6c1 4.9-1.2 9.5-4.8 10.3s-7.4-2.8-8.4-7.7z" style="fill:#e7d7ac"/>
      <path class="st34" d="M205.9 129.6c-1-4.8 1.1-9.3 4.7-10s7.2 2.6 8.2 7.4-1.1 9.3-4.7 9.9c-3.6.8-7.2-2.5-8.2-7.3z"/>
      <path class="st35" d="M206.1 129.5c-.9-4.6 1.1-9 4.5-9.7s6.9 2.5 7.9 7.2-1.1 8.9-4.5 9.6-7-2.4-7.9-7.1z"/>
      <path class="st36" d="M206.3 129.5c-.9-4.5 1.1-8.7 4.4-9.3 3.3-.7 6.7 2.5 7.7 6.9.9 4.5-1.1 8.7-4.4 9.3-3.4.7-6.8-2.4-7.7-6.9z"/>
      <path class="st38" d="M206.5 129.5c-.9-4.3 1-8.3 4.2-9s6.5 2.4 7.4 6.7c.9 4.3-1 8.3-4.2 9s-6.5-2.4-7.4-6.7z"/>
      <path class="st39" d="M206.7 129.4c-.8-4.2 1-8.1 4.1-8.7 3.1-.6 6.3 2.3 7.1 6.5.8 4.2-1 8.1-4.1 8.7s-6.3-2.3-7.1-6.5z"/>
      <path class="st40" d="M206.9 129.4c-.8-4 .9-7.8 3.9-8.3 3-.5 6.1 2.2 6.9 6.3.9 4-.9 7.8-3.9 8.3s-6.1-2.3-6.9-6.3z"/>
      <path class="st42" d="M207.1 129.3c-.8-3.9.9-7.5 3.8-8.1 2.9-.6 5.8 2.1 6.6 6s-.9 7.5-3.8 8.1c-2.8.6-5.8-2.1-6.6-6z"/>
      <path class="st44" d="M207.3 129.3c-.8-3.7.9-7.2 3.6-7.8 2.8-.5 5.6 2 6.4 5.8.7 3.7-.9 7.2-3.6 7.8-2.8.6-5.7-2.1-6.4-5.8z"/>
      <path class="st46" d="M207.5 129.3c-.7-3.6.8-6.9 3.5-7.5 2.6-.5 5.4 2 6.1 5.5s-.8 6.9-3.5 7.4c-2.7.6-5.4-1.8-6.1-5.4z"/>
      <path class="st97" d="M207.7 129.2c-.7-3.4.8-6.6 3.3-7.1s5.2 1.9 5.9 5.3c.7 3.5-.8 6.6-3.3 7.1-2.6.6-5.2-1.8-5.9-5.3z"/>
      <path class="st50" d="M207.9 129.2c-.7-3.3.8-6.4 3.2-6.8 2.4-.5 4.9 1.8 5.5 5.1.6 3.3-.8 6.4-3.2 6.8s-4.8-1.8-5.5-5.1z"/>
      <path class="st52" d="M208.1 129.1c-.6-3.1.7-6.1 3.1-6.5 2.3-.5 4.7 1.7 5.3 4.9.6 3.1-.7 6.1-3.1 6.5s-4.7-1.7-5.3-4.9z"/>
      <path class="st54" d="M208.3 129.1c-.6-3 .7-5.8 2.9-6.2 2.2-.4 4.5 1.6 5.1 4.6.6 3-.7 5.8-2.9 6.2-2.2.5-4.5-1.6-5.1-4.6z"/>
      <path class="st57" d="M208.6 129.1c-.6-2.8.7-5.5 2.8-5.9 2.1-.4 4.2 1.6 4.8 4.4.6 2.9-.7 5.5-2.8 5.9-2.2.3-4.3-1.6-4.8-4.4z"/>
      <path d="M208.7 129c-.5-2.7.6-5.2 2.6-5.5 2-.4 4 1.5 4.6 4.2.5 2.7-.6 5.2-2.6 5.5-2 .3-4.1-1.5-4.6-4.2z" style="fill:#d1bc8e"/>
      <path class="st62" d="M208.9 129c-.5-2.6.6-4.9 2.5-5.3 1.9-.4 3.8 1.4 4.3 3.9.5 2.6-.6 4.9-2.5 5.3-1.8.4-3.8-1.4-4.3-3.9z"/>
      <path d="M209.1 129c-.5-2.4.6-4.6 2.3-5 1.8-.3 3.6 1.3 4.1 3.7.5 2.4-.6 4.6-2.3 5-1.8.3-3.6-1.4-4.1-3.7z" style="fill:#ccb788"/>
      <path class="st68" d="M209.3 129c-.4-2.2.5-4.3 2.2-4.6s3.4 1.2 3.8 3.5c.5 2.2-.5 4.3-2.2 4.7-1.6.2-3.3-1.4-3.8-3.6z"/>
    </g>
    <path d="M121.8 129.1c-3.6-10.5 25.5-57.3 33.2-63.4 0 0-33.5 44.4-32.6 64.4l-.6-1z" style="fill:#cab485"/>
    <linearGradient id="SVGID_35_" gradientUnits="userSpaceOnUse" x1="220.596" y1="344.684" x2="153.107" y2="277.945" gradientTransform="matrix(1 0 0 -1 0 381.663)">
      <stop offset="0" style="stop-color:#f1e1b9"/>
      <stop offset=".09" style="stop-color:#f0dfb7"/>
      <stop offset=".12" style="stop-color:#ebdab0"/>
      <stop offset=".14" style="stop-color:#e2cfa5"/>
      <stop offset=".16" style="stop-color:#d5c194"/>
      <stop offset=".17" style="stop-color:#cab485"/>
      <stop offset=".48" style="stop-color:#c8b283"/>
      <stop offset=".64" style="stop-color:#c0aa7d"/>
      <stop offset=".77" style="stop-color:#b39d73"/>
      <stop offset=".88" style="stop-color:#a08a65"/>
      <stop offset=".97" style="stop-color:#887152"/>
      <stop offset="1" style="stop-color:#80694c"/>
    </linearGradient>
    <path d="M189.8 65c7.1-3.3 14-6.8 21.9-8.2 5.1-1 14.3-4.2 19-1.2 1.7.9 3.3 2.2 4.5 3.8-9.5-14.2-22.4-26.5-40.4-19.3-5.7 2.3-11.3 5-16.7 8-4.5 2.5-8.8 5.3-13 8.3l-6.3 4.8c-1.6 1.4-3.1 3-4.5 4.8 0 0 7.6 3 8.3 3.1 3.1.6 6.3.9 9.5.8 6.4-.1 12-2.3 17.7-4.9z" style="fill:url(#SVGID_35_)"/>
    <linearGradient id="SVGID_36_" gradientUnits="userSpaceOnUse" x1="202.407" y1="293.907" x2="221.131" y2="305.28" gradientTransform="matrix(1 0 0 -1 0 381.663)">
      <stop offset=".01" style="stop-color:#f1e1b9"/>
      <stop offset=".48" style="stop-color:#cab485"/>
      <stop offset="1" style="stop-color:#80694c"/>
    </linearGradient>
    <path d="M220.4 76.3c-2-1-5.5.9-6.9 2.1-1.1 1-2.1 2.1-2.9 3.4.2.4.4.8.6 1.1 1.4-1.6 3-2.9 4.9-3.9 1-.5 4.5-1.7 4.5.5l.2-.3.2-.6c.1-.4.2-.8.4-1.2-.2-.5-.5-.9-1-1.1z" style="fill:url(#SVGID_36_)"/>
    <radialGradient id="SVGID_37_" cx="222.819" cy="292.24" r="112.467" gradientTransform="matrix(1 0 0 -1 0 381.663)" gradientUnits="userSpaceOnUse">
      <stop offset=".01" style="stop-color:#80694c"/>
      <stop offset=".31" style="stop-color:#cab485"/>
      <stop offset=".57" style="stop-color:#d1bc8d"/>
      <stop offset="1" style="stop-color:#f1e1b9"/>
    </radialGradient>
    <path d="M222.2 70.1c-1 .5-2.3.8-3.3 1.4-3.6 1.9-6.8 4.5-9.5 7.7l-.2-.5c1.3-1.5 2.4-3.2 3.1-5l.6-1.2c.1-.1.2-.3.2-.5.4-.7.9-1.5 1.4-2.1 2.1-1.3 4.5-2 7-2.1.2.7.5 1.4.7 2 .2.2 0 .1 0 .3z" style="fill:url(#SVGID_37_)"/>
    <linearGradient id="SVGID_38_" gradientUnits="userSpaceOnUse" x1="205.533" y1="368.256" x2="155.561" y2="342.181" gradientTransform="matrix(1 0 0 -1 0 381.663)">
      <stop offset="0" style="stop-color:#ee3c32"/>
      <stop offset=".22" style="stop-color:#db4436"/>
      <stop offset=".65" style="stop-color:#ab5742"/>
      <stop offset="1" style="stop-color:#80694c"/>
    </linearGradient>
    <path d="M191 24.9c-.2-.4.3-1.4.8-2.2l-4.8-1.6c-4.2-.8-7.6-1.2-7.6-1.2-.4-.4-17.4-5.3-21.1-5.9 4.3 1.8 8.1 4.4 11.3 7.7 0 0-12.7 5.8-15.9 7.8 0 0 18.8-1 22.9-.4 0 0 6.7 12.8 6.9 13.9 2-3.9 3.9-7.9 5.4-12.1.1-.4 13.5 4 17 6.4-2.8-2.1-14.2-11-14.9-12.4z" style="fill:url(#SVGID_38_)"/>
    <linearGradient id="SVGID_39_" gradientUnits="userSpaceOnUse" x1="214.569" y1="276.399" x2="200.409" y2="275.692" gradientTransform="matrix(1 0 0 -1 0 381.663)">
      <stop offset="0" style="stop-color:#cab485"/>
      <stop offset=".98" style="stop-color:#f0e0b8"/>
      <stop offset="1" style="stop-color:#f1e1b9"/>
    </linearGradient>
    <path d="M204.6 109.2c.2-.2-.1-.1-.3-.1-2.9 0-2.1-4.1-2.1-6-.1-.5-.6-.9-1.2-.9-1.4.1-3.7 2.9-4.2 6v.7c2.5 1 5.2 1.1 7.8.3z" style="fill:url(#SVGID_39_)"/>
    <defs>
      <path id="SVGID_40_" d="M191.2 78.5c1.5-2.1 4.9-3.9 7.6-3-4.3-1.1-8.7-1.7-13.1-1.8-2.3-.1-5.7-.6-7.9.2-2.8.8-5.6 1.8-8.2 3-.5.2-1.1.5-1.5.8h.5c6.4-.4 2.5-.4 6.8-1.2 1.6-.4 3.3-.6 4.9-.5 1.8.4 3.6 1.1 5.2 2.1.5.2 1 .5 1.4.9.1 0 .7.8.6.8-.8 0-1.6 0-2.4.1-1.1 0-5.1.8-6 1-1.4.3-5.6 1-5.3 3.3 1.3-.7 2.6-1.1 4.1-1.2 1.3-.3 2.7-.5 4-.5 0 .9.2 1.8.5 2.7.9 1.6 2.9 2.2 4.5 1.4.3-.1.5-.3.7-.5.9-1 1.3-2.2 1.3-3.5h1.2c.2.2.4.5.7.8.2.3.5.4.9.5.4 0 .7-.3.7-.6-.4-.2-.7-.6-.7-1.1 0-.5-.1-.9-.3-1.3 0-.1-.1-.2-.2-.3-.5-.8-.4-1.5 0-2.1z"/>
    </defs>
    <clipPath id="SVGID_41_">
      <use xlink:href="#SVGID_40_" style="overflow:visible"/>
    </clipPath>
    <g style="clip-path:url(#SVGID_41_)">
      <path class="st20" d="M168 73.1h30.8V87H168z"/>
      <path class="st20" d="M167.1 72.2h32.7V88H183v4c-13.3-2.8-22.6-12-20.8-20.7l4.9.9z"/>
      <path class="st20" d="M167.1 72.2h32.7V88H183v3.9c-13.1-2.7-22.4-11.9-20.6-20.5l4.7.8z"/>
      <path class="st20" d="M167.1 72.2h32.7V88h-16.6v3.7c-13-2.7-22.2-11.8-20.4-20.3l4.3.8z"/>
      <path class="st71" d="M167.1 72.2h32.7V88h-16.6v3.6c-12.9-2.6-22-11.7-20.3-20.2l4.2.8z"/>
      <path class="st21" d="M167.1 72.2h32.7V88h-16.6v3.5c-12.8-2.6-21.8-11.6-20-20l3.9.7z"/>
      <path class="st72" d="M167.1 72.2h32.7V88h-16.6v3.3c-12.7-2.6-21.5-11.5-19.8-19.8l3.7.7z"/>
      <path class="st22" d="M167.1 72.2h32.7V88h-16.6v3.2c-12.6-2.6-21.4-11.4-19.7-19.6l3.6.6z"/>
      <path class="st23" d="M167.1 72.2h32.7V88h-16.6v3c-12.5-2.6-21.2-11.3-19.5-19.4l3.4.6z"/>
      <path class="st23" d="M167.1 72.2h32.7V88h-16.5v2.9c-12.3-2.5-21-11.2-19.3-19.3l3.1.6z"/>
      <path class="st24" d="M167.1 72.2h32.7V88h-16.5v2.8c-12.2-2.5-20.8-11.1-19.1-19.1l2.9.5z"/>
      <path class="st24" d="M167.1 72.2h32.7V86h5.5c-1.6 1.6-3.5 2.8-5.6 3.6V88h-16.4v2.6c-12.1-2.5-20.6-11-19-18.9l2.8.5z"/>
      <path class="st25" d="M167.1 72.2h32.7v13.7h5.4c-1.6 1.6-3.5 2.8-5.5 3.6V88h-16.3v2.5c-12-2.5-20.4-10.9-18.8-18.7l2.5.4z"/>
      <path class="st74" d="M167.1 72.2h32.7v13.6h5.2c-1.6 1.6-3.5 2.8-5.5 3.6V88h-16v2.4c-11.9-2.4-20.2-10.7-18.6-18.6l2.2.4z"/>
      <path class="st27" d="M167.1 72.2h32.7v13.5h5c-1.6 1.5-3.5 2.7-5.5 3.5V88h-15.8v2.2c-11.8-2.4-20-10.6-18.4-18.4l2 .4z"/>
      <path class="st93" d="M167.1 72.2h32.7v13.4h4.8c-1.5 1.5-3.4 2.7-5.4 3.5V88h-15.7v2.1c-11.7-2.4-19.8-10.6-18.3-18.2l1.9.3z"/>
      <path class="st28" d="M167.1 72.2h32.7v13.4h4.7c-1.5 1.5-3.4 2.7-5.4 3.4v-1h-15.6v2c-11.5-2.4-19.6-10.4-18-18l1.6.2z"/>
      <path class="st28" d="M167.1 72.2h32.7v13.3h4.5c-1.5 1.5-3.3 2.7-5.3 3.4V88h-15.4v1.8C172 87.5 164 79.5 165.5 72l1.6.2z"/>
      <path class="st29" d="M167.1 72.2h32.7v13.2h4.3c-1.5 1.5-3.3 2.7-5.3 3.4V88h-15.3v1.7c-11.3-2.4-19.3-10.3-17.7-17.7l1.3.2z"/>
      <path class="st29" d="M167.1 72.2h32.7v13.1h4.2c-1.5 1.5-3.3 2.6-5.2 3.3V88h-15.2v1.5c-11.2-2.3-19-10.1-17.5-17.4l1 .1z"/>
      <path class="st31" d="M167.1 72.2h32.7v8.2h6.5c-1.5 7.3-11.7 11.3-22.8 9.1-11.1-2.3-18.8-10-17.4-17.3h1z"/>
      <path class="st95" d="M167.1 72.2h32.7v8.1h6.3c-1.5 7.2-11.6 11.2-22.5 9-10.9-2.2-18.7-9.9-17.2-17.2l.7.1z"/>
      <path class="st32" d="M166.6 72.2c.4-1.8 1.3-3.4 2.6-4.7v4.7h30.5v8.1h6.1c-1.4 7.1-11.4 11.1-22.2 8.9-10.8-2.3-18.5-9.9-17-17z"/>
      <path class="st107" d="M166.8 72.2c.4-1.8 1.3-3.4 2.6-4.7v4.6h30.4v8h5.9c-1.5 7.1-11.3 11-22.1 8.8-10.8-2.1-18.3-9.6-16.8-16.7z"/>
      <path class="st34" d="M167 72.3c.4-1.7 1.2-3.4 2.5-4.6v4.5h30.2v8h5.7c-1.4 6.9-11.2 10.9-21.8 8.7-10.6-2.2-18-9.6-16.6-16.6z"/>
      <path class="st35" d="M167.2 72.3c.4-1.7 1.3-3.3 2.5-4.6v4.4h30v8h5.5c-1.4 6.9-11.1 10.8-21.6 8.6-10.4-2.1-17.8-9.5-16.4-16.4z"/>
      <path class="st35" d="M167.4 72.4c.4-1.7 1.2-3.3 2.5-4.5v4.3h29.9v7.9h5.3c-1.4 6.8-11 10.6-21.4 8.5s-17.7-9.4-16.3-16.2z"/>
      <path class="st36" d="M167.6 72.4c.4-1.7 1.2-3.2 2.4-4.5v4.2h29.7V80h5.1c-1.4 6.8-10.8 10.5-21.1 8.4s-17.5-9.2-16.1-16z"/>
      <path d="M167.8 72.4c.4-1.7 1.2-3.2 2.4-4.4v4.2h29.5V80h4.9c-1.4 6.7-10.7 10.4-20.9 8.3-10.1-2.1-17.3-9.2-15.9-15.9z" style="fill:#e3d2a8"/>
      <path d="M168 72.5c.4-1.7 1.2-3.2 2.4-4.4v4h29.3V80h4.7c-1.4 6.6-10.6 10.3-20.7 8.2s-17-9.2-15.7-15.7z" style="fill:#e3d1a6"/>
      <path class="st39" d="M168.2 72.5c.4-1.6 1.2-3.1 2.4-4.3v4h29.1v7.7h4.5c-1.4 6.5-10.5 10.2-20.4 8.1-10-2-16.8-9-15.6-15.5z"/>
      <path class="st77" d="M168.4 72.6c.3-1.6 1.2-3.1 2.3-4.3v3.9h29v7.7h4.3c-1.4 6.5-10.4 10.1-20.2 8-9.8-2-16.7-8.9-15.4-15.3z"/>
      <path d="M168.6 72.6c.7-3.2 3.2-5.7 6.8-7.1v6.7h24.3v7.7h4c-1.3 6.4-10.2 9.9-19.9 8-9.7-2.1-16.5-8.9-15.2-15.3z" style="fill:#dfcda1"/>
      <path class="st42" d="M168.8 72.7c.7-3.2 3.2-5.5 6.8-7v6.5h24.1v7.6h3.8c-1.3 6.3-10.1 9.8-19.7 7.9-9.5-2-16.3-8.7-15-15z"/>
      <path class="st43" d="M169 72.7c.6-3.1 3.1-5.5 6.7-6.9v6.4h24v7.6h3.6c-1.3 6.2-10 9.7-19.4 7.8-9.4-2-16.1-8.7-14.9-14.9z"/>
      <path class="st46" d="M169.3 72.7c.6-3.1 3.1-5.5 6.6-6.9v6.3h23.9v7.5h3.4c-1.3 6.2-9.8 9.7-19.2 7.7-9.5-1.9-16-8.4-14.7-14.6z"/>
      <path class="st78" d="M169.5 72.8c.6-3 3.1-5.4 6.5-6.8v6.2h23.7v-1.3c2.6 2.6 3.9 5.8 3.4 8.8-1.3 6.1-9.7 9.5-19 7.6-9.4-2-15.9-8.4-14.6-14.5z"/>
      <path class="st47" d="M169.7 72.8c.6-3 3-5.3 6.4-6.7v6h23.3v-1.2c2.6 2.6 3.9 5.7 3.3 8.7-1.2 6-9.7 9.4-18.8 7.5s-15.5-8.3-14.2-14.3z"/>
      <path class="st48" d="M169.9 72.9c.6-3 3-5.3 6.3-6.6v5.9h12.2v-6.7c9.1 1.8 15.4 8.2 14.1 14.1-1.2 5.9-9.5 9.2-18.5 7.4-9-1.9-15.3-8.2-14.1-14.1z"/>
      <path d="M170.1 72.9c.6-2.9 3-5.2 6.3-6.5v5.8h12v-6.6c8.9 1.8 15.1 8.1 14 13.9-1.2 5.8-9.4 9.1-18.3 7.3-9-1.9-15.2-8-14-13.9z" style="fill:#d7c599"/>
      <path class="st49" d="M170.3 72.9c.6-2.9 2.9-5.1 6.2-6.4v5.7h11.9v-6.4c8.8 1.8 15 8 13.8 13.7-1.2 5.8-9.3 9-18 7.2s-15.1-8-13.9-13.8z"/>
      <path class="st51" d="M170.5 73c.6-2.9 2.9-5.1 6.2-6.4v5.5h11.7v-6.3c8.7 1.8 14.8 7.9 13.6 13.6-1.2 5.7-9.2 8.9-17.8 7.1-8.7-1.7-14.9-7.8-13.7-13.5z"/>
      <path class="st52" d="M170.7 73c.6-2.8 2.8-5 6-6.3v5.4h11.6V66c8.6 1.8 14.6 7.7 13.4 13.4-1.2 5.6-9 8.8-17.6 6.9s-14.6-7.6-13.4-13.3z"/>
      <path class="st53" d="M170.9 73.1c.8-2.9 3-5.3 5.9-6.2v5.3h11.4v-6c8.4 1.7 14.4 7.6 13.2 13.2s-8.9 8.7-17.4 6.9c-8.3-1.7-14.3-7.7-13.1-13.2z"/>
      <path class="st54" d="M171.1 73.1c.8-2.9 3-5.2 5.9-6.1v5.2h11.3v-5.9c8.3 1.7 14.2 7.5 13.1 13s-8.8 8.5-17.1 6.8c-8.5-1.7-14.3-7.5-13.2-13z"/>
      <path d="M171.3 73.2c.8-2.9 3-5.1 5.8-6v5h11.1v-5.7c8.2 1.7 14 7.4 12.9 12.8-1.1 5.4-8.7 8.4-16.9 6.7s-14-7.4-12.9-12.8z" style="fill:#d3bf92"/>
      <path class="st57" d="M171.5 73.2c.8-2.8 2.9-5.1 5.7-5.9v4.9h11v-5.6c8.1 1.7 13.8 7.3 12.7 12.7-1.1 5.3-8.5 8.3-16.6 6.6-8.2-1.7-13.9-7.4-12.8-12.7z"/>
      <path class="st58" d="M171.7 73.3c.7-2.8 2.8-5 5.5-5.9v4.8H188v-5.5c8 1.6 13.6 7.2 12.5 12.5-1.1 5.3-8.3 8.2-16.3 6.5-7.9-1.6-13.5-7.2-12.5-12.4z"/>
      <path class="st60" d="M171.9 73.3c.7-2.7 2.8-4.9 5.5-5.8v4.6H188v-5.3c7.9 1.6 13.4 7.1 12.3 12.3-1.1 5.2-8.3 8.1-16.2 6.4-7.7-1.5-13.2-7-12.2-12.2z"/>
      <path class="st80" d="M172.2 73.3c.7-2.7 2.8-4.8 5.5-5.7v4.5h10.5V67c7.8 1.6 13.2 7 12.1 12.1-1.1 5.1-8.2 7.9-15.9 6.4s-13.3-7.1-12.2-12.2z"/>
      <path d="M172.4 73.4c1-5 8.1-7.8 15.7-6.3 7.6 1.6 13 6.9 12 12s-8.1 7.8-15.7 6.3c-7.7-1.6-13.1-7-12-12z" style="fill:#cfbb8b"/>
      <path class="st63" d="M172.6 73.5c1-5 7.9-7.7 15.5-6.2 7.5 1.5 12.8 6.8 11.8 11.8-1 5-7.9 7.6-15.5 6.1s-12.8-6.8-11.8-11.7z"/>
      <path class="st64" d="M172.8 73.5c1-4.9 7.8-7.6 15.3-6.1 7.4 1.5 12.6 6.7 11.6 11.6-1 4.9-7.8 7.6-15.3 6.1-7.4-1.5-12.6-6.8-11.6-11.6z"/>
      <path class="st65" d="M173 73.5c1-4.8 7.7-7.5 15-6s12.5 6.6 11.4 11.4-7.7 7.5-15 6S172 78.3 173 73.5z"/>
      <path d="M173.2 73.5c1-4.7 7.6-7.4 14.8-5.9 7.2 1.5 12.2 6.5 11.3 11.2-1 4.7-7.6 7.4-14.8 5.9-7.2-1.5-12.3-6.4-11.3-11.2z" style="fill:#ccb587"/>
      <path class="st68" d="M173.4 73.6c1-4.6 7.5-7.2 14.5-5.8 7.1 1.5 12 6.4 11.1 11.1-.9 4.7-7.5 7.2-14.5 5.8-7.1-1.4-12-6.5-11.1-11.1z"/>
      <path class="st68" d="M173.6 73.6c.9-4.6 7.3-7.1 14.3-5.7 7 1.4 11.8 6.3 10.9 10.9-.9 4.6-7.4 7.1-14.3 5.8-6.9-1.4-11.8-6.4-10.9-11z"/>
      <path d="M173.8 73.7c.9-4.5 7.3-7 14.1-5.6s11.7 6.2 10.8 10.7c-.9 4.5-7.2 7-14.1 5.6-7-1.4-11.8-6.2-10.8-10.7z" style="fill:#c8b285"/>
      <path class="st116" d="M173.9 73.7c.9-4.5 7.2-6.9 13.9-5.5 6.7 1.4 11.5 6.1 10.6 10.6-.9 4.5-7.2 6.9-13.9 5.5-6.7-1.4-11.5-6.1-10.6-10.6z"/>
      <path d="M174.1 73.7c.9-4.4 7.1-6.9 13.8-5.5 6.7 1.4 11.4 6.1 10.5 10.5s-7.1 6.9-13.8 5.5c-6.7-1.4-11.4-6.1-10.5-10.5z" style="fill:#c6af81"/>
      <path class="st118" d="M174.2 73.8c.9-4.4 6.9-6.8 13.6-5.4s11.2 6 10.3 10.3c-.9 4.3-6.9 6.8-13.6 5.4s-11.2-6-10.3-10.3z"/>
      <path d="M174.4 73.8c.9-4.3 6.9-6.7 13.4-5.3 6.5 1.3 11.1 5.9 10.2 10.2-.9 4.3-6.9 6.7-13.4 5.3-6.5-1.4-11.1-5.9-10.2-10.2z" style="fill:#c3ad81"/>
      <path d="M174.6 73.8c.9-4.2 6.8-6.6 13.2-5.3s10.9 5.8 10.1 10.1c-.9 4.2-6.8 6.6-13.2 5.3-6.5-1.3-11-5.8-10.1-10.1z" style="fill:#c0ac80"/>
      <path d="M174.7 73.9c.8-4.2 6.7-6.5 13-5.2s10.8 5.7 9.9 9.9-6.7 6.5-13.1 5.2-10.6-5.8-9.8-9.9z" style="fill:#bfa97e"/>
      <path class="st122" d="M174.9 73.9c.8-4.2 6.6-6.4 12.9-5.1s10.7 5.7 9.8 9.8c-.8 4.1-6.6 6.4-12.9 5.1-6.3-1.3-10.7-5.7-9.8-9.8z"/>
      <path class="st123" d="M175 73.9c.8-4.1 6.5-6.3 12.7-5.1 6.2 1.3 10.5 5.5 9.7 9.7-.8 4.2-6.5 6.3-12.7 5-6.2-1.1-10.5-5.5-9.7-9.6z"/>
      <path class="st123" d="M175.2 74c.8-4 6.4-6.2 12.5-5 6.1 1.2 10.3 5.5 9.5 9.5-.8 4-6.4 6.2-12.5 5-6-1.3-10.3-5.5-9.5-9.5z"/>
      <path d="M175.3 74c.8-3.9 6.3-6.1 12.3-4.9 6 1.2 10.2 5.4 9.4 9.4-.8 4-6.3 6.1-12.3 4.9-5.9-1.3-10.2-5.5-9.4-9.4z" style="fill:#bca47b"/>
      <path class="st125" d="M175.5 74c.8-3.9 6.2-6.1 12.1-4.9 5.9 1.2 10.1 5.4 9.3 9.3-.8 3.9-6.2 6-12.1 4.8-5.9-1.1-10.1-5.3-9.3-9.2z"/>
      <path d="M175.7 74.1c.8-3.8 6.1-6 12-4.8s9.9 5.3 9.1 9.1-6.2 6-12 4.8-9.9-5.3-9.1-9.1z" style="fill:#b7a279"/>
      <path d="M175.8 74.1c.8-3.8 6.1-5.9 11.8-4.7 5.7 1.2 9.7 5.2 9 9s-6.1 5.9-11.8 4.7-9.7-5.2-9-9z" style="fill:#b7a078"/>
      <path d="M176 74.1c.8-3.7 6-5.8 11.6-4.6s9.6 5.1 8.8 8.8c-.8 3.7-6 5.8-11.6 4.6s-9.5-5.1-8.8-8.8z" style="fill:#b39e75"/>
      <path class="st129" d="M176.1 74.2c.7-3.7 5.9-5.7 11.4-4.6 5.6 1.1 9.5 5 8.7 8.7s-5.9 5.7-11.4 4.6-9.4-5.1-8.7-8.7z"/>
      <path class="st130" d="M176.3 74.2c.7-3.6 5.8-5.5 11.2-4.5 5.5 1.1 9.3 5 8.6 8.6s-5.8 5.5-11.2 4.5c-5.5-1.1-9.3-5-8.6-8.6z"/>
      <path class="st131" d="M176.5 74.2c.7-3.6 5.7-5.5 11.1-4.4 5.4 1.1 9.2 4.9 8.4 8.4s-5.7 5.5-11.1 4.4c-5.4-1.1-9.2-4.8-8.4-8.4z"/>
      <path class="st132" d="M176.7 74.3c.7-3.5 5.5-5.4 10.9-4.3s9 4.8 8.3 8.3c-.7 3.5-5.5 5.4-10.9 4.3-5.3-1.1-9.1-4.9-8.3-8.3z"/>
      <path class="st133" d="M176.8 74.3c.7-3.4 5.5-5.3 10.7-4.3s8.9 4.7 8.2 8.2c-.7 3.4-5.5 5.3-10.7 4.3-5.2-1.1-8.9-4.8-8.2-8.2z"/>
      <path class="st134" d="M176.9 74.3c.7-3.4 5.4-5.3 10.5-4.2s8.7 4.6 8 8c-.7 3.4-5.4 5.3-10.5 4.2s-8.7-4.7-8-8z"/>
      <path class="st135" d="M177.1 74.3c.7-3.3 5.3-5.2 10.3-4.2s8.6 4.6 7.9 7.9c-.7 3.3-5.3 5.1-10.3 4.2-5.1-.9-8.6-4.6-7.9-7.9z"/>
      <path d="M177.2 74.4c.7-3.2 5.2-5.1 10.2-4 5 1 8.4 4.5 7.8 7.7s-5.2 5.1-10.2 4c-5-1.1-8.4-4.5-7.8-7.7z" style="fill:#aa946f"/>
      <path class="st137" d="M177.4 74.4c.7-3.2 5.1-5 10-4s8.3 4.4 7.6 7.6c-.7 3.2-5.1 5-10 4s-8.3-4.4-7.6-7.6z"/>
      <path class="st138" d="M177.6 74.4c.6-3.1 5-4.9 9.8-3.9 4.8 1 8.1 4.3 7.5 7.5-.6 3.1-5 4.9-9.9 3.9s-8.1-4.3-7.4-7.5z"/>
      <path class="st139" d="M177.7 74.5c.6-3.1 5-4.8 9.6-3.8 4.7 1 8 4.2 7.3 7.3-.6 3.1-4.9 4.8-9.6 3.8-4.6-.9-7.9-4.2-7.3-7.3z"/>
      <path class="st140" d="M177.9 74.5c.6-3 4.9-4.7 9.4-3.8s7.8 4.2 7.2 7.2-4.9 4.7-9.5 3.8-7.7-4.2-7.1-7.2z"/>
      <path class="st141" d="M178 74.5c.6-3 4.8-4.6 9.3-3.7 4.5.9 7.7 4.1 7.1 7.1-.6 3-4.8 4.6-9.3 3.7-4.5-.9-7.7-4.1-7.1-7.1z"/>
      <path d="M178.2 74.6c.6-2.9 4.7-4.5 9.1-3.6s7.5 4 6.9 6.9-4.7 4.5-9.1 3.6c-4.4-.9-7.5-4-6.9-6.9z" style="fill:#a38b6a"/>
      <path d="M178.4 74.6c.6-2.9 4.6-4.5 8.9-3.6 4.3.9 7.4 3.9 6.8 6.8-.6 2.8-4.6 4.5-8.9 3.6-4.4-.9-7.4-3.9-6.8-6.8z" style="fill:#a18b68"/>
      <path d="M178.5 74.6c.6-2.8 4.5-4.4 8.7-3.5 4.2.9 7.2 3.8 6.7 6.6-.6 2.8-4.5 4.4-8.7 3.5-4.3-.8-7.3-3.8-6.7-6.6z" style="fill:#a18a67"/>
      <path d="M178.7 74.7c.6-2.8 4.4-4.3 8.6-3.4 4.2.8 7.1 3.8 6.5 6.5s-4.4 4.3-8.6 3.4c-4.2-.9-7.2-3.8-6.5-6.5z" style="fill:#a08967"/>
      <path d="M178.8 74.7c.6-2.7 4.3-4.2 8.3-3.3 4 .8 6.9 3.7 6.4 6.4s-4.3 4.2-8.3 3.3c-4-.8-6.9-3.7-6.4-6.4z" style="fill:#9d8765"/>
      <path class="st147" d="M179 74.7c.5-2.6 4.2-4.1 8.2-3.3 4 .8 6.8 3.6 6.2 6.2s-4.2 4.2-8.2 3.3c-4-.8-6.7-3.5-6.2-6.2z"/>
      <path d="M179.1 74.8c.5-2.6 4.2-4 8-3.2 3.9.8 6.6 3.5 6.1 6.1s-4.2 4-8 3.2-6.6-3.6-6.1-6.1z" style="fill:#9c8463"/>
      <path d="M179.3 74.9c.5-2.5 4-3.9 7.9-3.1 3.8.8 6.5 3.5 6 6s-4 3.9-7.8 3.1-6.6-3.6-6.1-6z" style="fill:#9b8362"/>
      <path class="st150" d="M179.4 74.9c.5-2.5 3.9-3.8 7.7-3.1 3.7.8 6.3 3.4 5.8 5.8s-3.9 3.8-7.7 3.1-6.2-3.4-5.8-5.8z"/>
      <path class="st150" d="M179.6 74.9c.5-2.4 3.8-3.7 7.5-3s6.2 3.3 5.7 5.8-3.8 3.7-7.5 3c-3.6-.8-6.2-3.4-5.7-5.8z"/>
      <path class="st151" d="M179.8 74.9c.5-2.3 3.7-3.6 7.3-2.9 3.6.7 6 3.2 5.5 5.5s-3.7 3.6-7.3 2.9-6-3.2-5.5-5.5z"/>
      <path class="st152" d="M179.9 74.9c.5-2.3 3.7-3.6 7.1-2.8 3.5.8 5.9 3.1 5.4 5.4-.5 2.3-3.7 3.6-7.1 2.9-3.4-.6-5.9-3.2-5.4-5.5z"/>
      <path class="st153" d="M180.1 75c.5-2.2 3.6-3.5 6.9-2.8 3.4.7 5.7 3.1 5.3 5.3-.5 2.2-3.6 3.5-6.9 2.8-3.4-.7-5.8-3.1-5.3-5.3z"/>
      <path d="M180.3 75c.4-2.2 3.5-3.4 6.8-2.7 3.3.7 5.5 3 5.2 5.1-.4 2.2-3.5 3.4-6.8 2.7s-5.7-2.9-5.2-5.1z" style="fill:#967f5e"/>
      <path d="M180.4 75c.4-2.1 3.4-3.3 6.6-2.6 3.2.7 5.5 2.9 5 5-.4 2.1-3.4 3.3-6.6 2.6-3.2-.6-5.4-2.9-5-5z" style="fill:#947e5c"/>
      <path class="st156" d="M180.6 75.1c.4-2.1 3.3-3.2 6.4-2.6 3.1.7 5.3 2.8 4.9 4.9s-3.3 3.2-6.4 2.6-5.4-2.9-4.9-4.9z"/>
      <path d="M180.7 75.1c.4-2 3.2-3.1 6.2-2.5 3 .6 5.1 2.8 4.7 4.7-.4 2-3.2 3.1-6.2 2.5-3-.6-5.1-2.7-4.7-4.7z" style="fill:#927c5c"/>
      <path class="st158" d="M180.8 75.1c.4-1.9 3.1-3 6-2.4s5 2.6 4.6 4.6c-.4 1.9-3.1 3-6 2.4-2.9-.6-4.9-2.6-4.6-4.6z"/>
      <path class="st159" d="M181 75.2c.4-1.9 3-2.9 5.9-2.3 2.9.6 4.9 2.6 4.5 4.5s-3 2.9-5.9 2.3c-2.8-.7-4.8-2.7-4.5-4.5z"/>
      <path class="st160" d="M181.2 75.2c.4-1.8 2.9-2.8 5.7-2.3 2.8.5 4.7 2.5 4.3 4.3-.4 1.8-2.9 2.8-5.7 2.3-2.7-.5-4.7-2.5-4.3-4.3z"/>
      <path class="st161" d="M181.4 75.2c.4-1.8 2.8-2.8 5.5-2.2 2.8.6 4.5 2.4 4.2 4.2-.4 1.7-2.8 2.8-5.5 2.2-2.8-.6-4.6-2.4-4.2-4.2z"/>
      <path class="st162" d="M181.5 75.3c.3-1.7 2.8-2.7 5.3-2.1s4.4 2.3 4.1 4c-.3 1.7-2.8 2.7-5.3 2.1-2.6-.5-4.4-2.3-4.1-4z"/>
      <path class="st163" d="M181.7 75.3c.3-1.7 2.6-2.6 5.1-2.1 2.5.5 4.3 2.3 3.9 3.9-.3 1.7-2.6 2.6-5.1 2.1-2.5-.5-4.3-2.3-3.9-3.9z"/>
      <path class="st163" d="M181.8 75.3c.3-1.6 2.6-2.5 5-2s4.2 2.2 3.8 3.8c-.4 1.6-2.6 2.5-5 2s-4.1-2.2-3.8-3.8z"/>
      <path class="st164" d="M182 75.4c.3-1.5 2.5-2.4 4.8-1.9s4 2.1 3.6 3.6c-.3 1.5-2.5 2.4-4.8 1.9-2.3-.4-3.9-2.1-3.6-3.6z"/>
      <path d="M182.2 75.4c.3-1.5 2.4-2.3 4.6-1.8 2.2.5 3.8 2 3.5 3.5-.3 1.5-2.4 2.3-4.6 1.8-2.2-.5-3.9-2-3.5-3.5z" style="fill:#8c7455"/>
      <path class="st166" d="M182.3 75.4c.3-1.4 2.3-2.2 4.4-1.8 2.1.4 3.7 2 3.4 3.4-.3 1.4-2.3 2.2-4.4 1.8-2.2-.5-3.7-2-3.4-3.4z"/>
      <path d="M182.5 75.5c.3-1.4 2.2-2.1 4.3-1.7 2.1.4 3.5 1.9 3.2 3.2-.3 1.4-2.2 2.1-4.2 1.7-2.1-.4-3.6-1.9-3.3-3.2z" style="fill:#8b7254"/>
      <path class="st168" d="M182.6 75.5c.3-1.3 2.1-2 4.1-1.6 2 .4 3.4 1.8 3.1 3.1-.3 1.3-2 2.1-4.1 1.6-2-.5-3.3-1.8-3.1-3.1z"/>
      <path class="st169" d="M182.8 75.5c.3-1.2 2-1.9 3.9-1.5s3.2 1.7 3 3c-.3 1.2-2 1.9-3.9 1.6-1.9-.5-3.3-1.8-3-3.1z"/>
      <path class="st169" d="M182.9 75.6c.2-1.2 1.9-1.9 3.7-1.5 1.8.4 3.1 1.6 2.8 2.8-.3 1.1-1.9 1.9-3.7 1.5-1.8-.4-3-1.7-2.8-2.8z"/>
      <path d="M183.1 75.6c.2-1.1 1.8-1.8 3.5-1.4 1.7.4 2.9 1.6 2.7 2.7-.2 1.1-1.8 1.8-3.5 1.4-1.7-.4-2.9-1.6-2.7-2.7z" style="fill:#876f52"/>
      <path d="M183.3 75.6c.2-1.1 1.7-1.7 3.3-1.4 1.6.3 2.8 1.5 2.6 2.6-.2 1.1-1.7 1.7-3.3 1.4s-2.9-1.5-2.6-2.6z" style="fill:#877052"/>
      <path class="st172" d="M183.4 75.7c.2-1 1.6-1.6 3.2-1.3 1.5.3 2.6 1.4 2.4 2.4-.2 1-1.6 1.6-3.2 1.3s-2.6-1.4-2.4-2.4z"/>
      <path class="st173" d="M183.6 75.7c.2-1 1.5-1.5 3-1.2 1.5.3 2.5 1.4 2.3 2.3s-1.5 1.5-3 1.2-2.5-1.4-2.3-2.3z"/>
      <path class="st173" d="M183.7 75.7c.2-.9 1.4-1.4 2.8-1.1 1.4.3 2.3 1.2 2.1 2.1-.2.9-1.4 1.4-2.8 1.1s-2.2-1.2-2.1-2.1z"/>
      <path class="st174" d="M183.9 75.7c.2-.8 1.4-1.4 2.6-1.1 1.2.3 2.2 1.2 2 2-.2.8-1.4 1.3-2.6 1.1-1.2-.2-2.2-1.1-2-2z"/>
      <path class="st174" d="M184.1 75.8c.2-.8 1.2-1.2 2.4-1 1.2.2 2 1.1 1.9 1.9-.2.8-1.3 1.2-2.5 1s-2-1.1-1.8-1.9z"/>
      <path d="M184.2 75.8c.2-.7 1.2-1.1 2.3-.9s1.9 1 1.7 1.7c-.1.7-1.2 1.1-2.3.9-1.1-.2-1.8-1-1.7-1.7z" style="fill:#836b4f"/>
      <path d="M184.4 75.8c.1-.7 1.1-1.1 2.1-.8 1 .2 1.7.9 1.6 1.6-.1.7-1.1 1.1-2.1.8s-1.8-.9-1.6-1.6z" style="fill:#836c4e"/>
      <path class="st177" d="M184.5 75.9c.1-.6 1-1 1.9-.8.9.2 1.6.8 1.4 1.4s-1 1-1.9.8c-.9-.2-1.5-.8-1.4-1.4z"/>
      <path class="st177" d="M184.7 75.9c.1-.6.9-.9 1.7-.7s1.4.8 1.4 1.4c0 .6-.9.9-1.7.7-.9-.2-1.5-.8-1.4-1.4z"/>
      <path class="st178" d="M184.8 75.9c.1-.5.8-.8 1.6-.6.8.2 1.3.7 1.2 1.2-.1.5-.8.8-1.6.6-.7-.1-1.3-.7-1.2-1.2z"/>
      <path class="st178" d="M185 76c.1-.4.7-.7 1.4-.5s1.1.6 1.1 1c-.1.4-.7.7-1.4.6-.7-.2-1.2-.7-1.1-1.1z"/>
      <path class="st178" d="M185.1 76c.1-.4.6-.6 1.2-.5.6.1 1 .5.9.9-.1.4-.6.6-1.2.5-.5-.1-.9-.5-.9-.9z"/>
      <path d="M185.3 76c.1-.3.5-.5 1-.4s.8.4.8.8c-.1.3-.5.5-1 .4-.5-.1-.9-.4-.8-.8z" style="fill:#816a4d"/>
      <path class="st180" d="M185.5 76.1c0-.3.4-.4.8-.3s.7.4.6.6c-.1.3-.4.4-.8.3-.4-.1-.7-.4-.6-.6z"/>
      <path class="st180" d="M185.6 76.1c0-.2.3-.3.7-.3.3.1.5.3.5.5s-.3.3-.7.3-.5-.3-.5-.5z"/>
      <path class="st180" d="M185.8 76.1c0-.2.2-.2.5-.2.2 0 .4.2.4.4s-.2.2-.5.2-.4-.2-.4-.4z"/>
    </g>
    <defs>
      <path id="SVGID_42_" d="M201.4 77.1c-1.4-1.1-3-1.8-4.7-2-1.7-.3-3.2-.5-4.9-.7-.2.6-.6 1.1-.8 1.7-.7 1.8-1.8 3.1-1.4 5.1.2.7 2 3.9 2.8 1.9-.1.3.4 1.6.3 2.2-.4.9-.8 1.7-1.4 2.5 1.8.1 3.7.1 5.5 0 .5 0 4.2-1.6 4.4-1.1-.7-1.6-.8-3.3-.4-5 .3-.9 1.2-1.6 1.3-2.5.1-.8-.2-1.6-.7-2.1z"/>
    </defs>
    <clipPath id="SVGID_43_">
      <use xlink:href="#SVGID_42_" style="overflow:visible"/>
    </clipPath>
    <g style="clip-path:url(#SVGID_43_)">
      <path class="st20" d="M189.1 74.3h13.1v13.6h-13.1z"/>
      <path class="st20" d="M192.8 88.9h-4.6V73.4h15v7.1h6.7c-4.4 5.9-10.3 10.6-17.1 13.5v-5.1z"/>
      <path class="st20" d="M192.7 88.9h-4.5V73.4h15v7h6.4c-4.4 5.9-10.2 10.5-16.9 13.4v-4.9z"/>
      <path class="st20" d="M192.6 88.9h-4.5V73.4h15v7h6.2c-4.3 5.8-10.1 10.4-16.8 13.2l.1-4.7z"/>
      <path class="st20" d="M192.6 88.9h-4.4V73.4h15v7h6c-4.3 5.8-10 10.3-16.6 13.1v-4.6z"/>
      <path class="st20" d="M192.5 88.9h-4.3V73.4h15v7h5.7c-4.3 5.7-9.9 10.2-16.5 13l.1-4.5z"/>
      <path class="st20" d="M192.4 88.9h-4.2V73.4h15v6.9h5.5c-4.2 5.7-9.8 10.1-16.3 12.9v-4.3z"/>
      <path class="st20" d="M192.4 88.9h-4.2V73.4h15v6.9h5.3c-4.2 5.6-9.7 10-16.2 12.7l.1-4.1z"/>
      <path class="st71" d="M192.3 88.9h-4.2V73.4h15.1v6.9h5.1c-4.1 5.5-9.7 9.9-16 12.6v-4z"/>
      <path class="st21" d="M192.2 88.9h-4V73.4h15v6.9h4.8c-4.1 5.5-9.6 9.8-15.8 12.5v-3.9z"/>
      <path class="st21" d="M192.2 88.9h-4V73.4h15v6.9h4.6c-4 5.4-9.4 9.7-15.7 12.4v-3.8z"/>
      <path class="st21" d="M192.1 88.9h-3.9V73.4h15v6.9h4.4c-4 5.4-9.4 9.6-15.5 12.2v-3.6z"/>
      <path class="st72" d="M192 88.9h-3.8V73.4h15v6.8h4.2c-4 5.3-9.3 9.5-15.4 12.1v-3.4z"/>
      <path class="st22" d="M191.9 88.9h-3.7V73.4h15v6.8h3.9c-3.9 5.3-9.2 9.4-15.3 12v-3.3z"/>
      <path class="st23" d="M191.9 88.9h-3.7V73.4h15v6.8h3.7c-3.9 5.2-9.1 9.3-15 11.9v-3.2z"/>
      <path class="st23" d="M191.8 88.9h-3.6V73.4h15v6.8h3.5c-3.8 5.2-9 9.2-14.9 11.7v-3z"/>
      <path class="st24" d="M191.8 88.9h-3.6V73.4h15v6.7h3.3c-3.8 5.1-8.9 9.1-14.7 11.6v-2.8z"/>
      <path class="st24" d="M191.7 88.9h-3.5V73.4h15v6.7h3c-3.8 5-8.8 9-14.6 11.5v-2.7z"/>
      <path class="st25" d="M191.6 88.9h-3.4V73.4h15v6.7h2.8c-3.7 5-8.7 8.9-14.4 11.4v-2.6z"/>
      <path class="st25" d="M191.6 88.9h-3.4V73.4h15V80h2.6c-3.7 4.9-8.6 8.8-14.3 11.2l.1-2.3z"/>
      <path class="st74" d="M191.5 88.9h-3.3V73.4h15V80h2.4c-3.6 4.9-8.5 8.7-14.1 11.1v-2.2z"/>
      <path class="st27" d="M191.4 88.9h-3.2V73.4h15V80h2.1c-3.6 4.8-8.4 8.6-14 11v-2.1z"/>
      <path class="st93" d="M191.3 88.9h-3.2V73.4h15V80h1.9c-3.6 4.8-8.3 8.5-13.8 10.9l.1-2z"/>
      <path class="st28" d="M191.3 88.9h-3.1V73.4h15v6.5h1.7c-3.5 4.7-8.2 8.4-13.6 10.8v-1.8z"/>
      <path class="st28" d="M191.2 88.9h-3V73.4h15v6.5h1.4c-3.5 4.7-8.1 8.3-13.5 10.6l.1-1.6z"/>
      <path class="st29" d="M191.1 88.9h-3V73.4h15l3.4-5.3c3.2 6.9-3.8 17-15.5 22.3v-1.5z"/>
      <path class="st29" d="M191.1 88.9h-2.9V73.4h15l3.1-5.2c3.1 6.9-3.7 16.8-15.3 22l.1-1.3z"/>
      <path class="st94" d="M191 88.9h-2.8V73.4h15l2.9-5c3.1 6.8-3.7 16.6-15.1 21.8v-1.3z"/>
      <path class="st31" d="M190.9 88.9h-2.8V73.4h15.1l2.6-4.9c3.1 6.8-3.6 16.4-14.9 21.5v-1.1z"/>
      <path class="st32" d="M190.9 88.9h-2.7V73.4h15l2.4-4.8c3 6.7-3.6 16.2-14.7 21.2v-.9z"/>
      <path class="st107" d="M190.8 88.9h-2.6V73.4h15l2.1-4.7c3 6.6-3.5 15.9-14.6 21v-.8z"/>
      <path class="st35" d="M190.7 88.9h-2.6V73.4h15l1.9-4.6c2.9 6.5-3.5 15.8-14.4 20.7v-.6z"/>
      <path class="st35" d="M190.7 88.9h-2.5V73.4h15l1.6-4.5c2.9 6.4-3.4 15.6-14.2 20.4v-.4z"/>
      <path class="st36" d="M190.6 88.9h-2.4V73.4h15l1.4-4.4c2.9 6.3-3.4 15.4-14 20.2v-.3z"/>
      <path class="st37" d="M190.5 88.9h-2.3V73.4h15l1.2-4.3c2.8 6.3-3.4 15.2-13.9 19.9v-.1z"/>
      <path d="M190.5 88.9c-2.4 1.1-5 1.9-7.7 2.4l5.4-2.4V73.4h15l.9-4.2c2.8 6.2-3.3 15-13.6 19.7z" style="fill:#e3d1a7"/>
      <path class="st39" d="M190.4 88.7c-2.4 1.1-5 1.9-7.6 2.4l5.4-2.2V73.4h15l.6-4c2.8 6-3.2 14.7-13.4 19.3z"/>
      <path class="st40" d="M190.3 88.6c-2.4 1.1-4.9 1.9-7.5 2.3l5.3-2V73.4h15l.4-3.9c2.8 6-3.1 14.5-13.2 19.1z"/>
      <path class="st41" d="M190.3 88.4c-2.4 1.1-4.8 1.9-7.4 2.3l5.3-1.9V73.4h15l.1-3.8c2.7 5.9-3.1 14.3-13 18.8z"/>
      <path class="st43" d="M190.2 88.3c-2.3 1.1-4.8 1.8-7.3 2.3l5.3-1.7V73.4h14.9v-3.7c2.7 5.8-3.1 14.2-12.9 18.6z"/>
      <path class="st44" d="M190.1 88.1c-2.3 1-4.7 1.8-7.2 2.3l5.2-1.5V73.4h14.7v-3.6c2.7 5.8-3 14-12.7 18.3z"/>
      <path class="st78" d="M190.1 88c-2.3 1-4.6 1.8-7.1 2.2l5.2-1.4V73.4h14.4v-3.5c2.6 5.7-3 13.8-12.5 18.1z"/>
      <path class="st47" d="M190 87.8c-2.2 1-4.5 1.7-6.9 2.2l5.2-1.1V73.4h14.1V70c2.5 5.6-3 13.6-12.4 17.8z"/>
      <path class="st97" d="M189.9 87.7c-2.2 1-4.5 1.7-6.9 2.1l5.1-.9V73.4H202v-3.2c2.6 5.5-2.9 13.3-12.1 17.5z"/>
      <path class="st49" d="M189.9 87.5c-2.2 1-4.4 1.7-6.8 2.1l5.1-.8V73.4h13.7v-3.1c2.4 5.4-3 13.1-12 17.2z"/>
      <path class="st51" d="M189.8 87.4c-2.1 1-4.4 1.7-6.6 2.1l5-.6V73.4h13.4v-3c2.4 5.3-2.9 12.9-11.8 17z"/>
      <path class="st52" d="M189.7 87.2c-2.1 1-4.3 1.7-6.5 2.1l5-.4V73.4h13.2v-2.9c2.3 5.2-2.9 12.7-11.7 16.7z"/>
      <path class="st54" d="M189.7 87.1c-2.1.9-4.2 1.6-6.4 2l5-.2V73.4h12.9v-2.8c2.2 5.2-2.9 12.6-11.5 16.5z"/>
      <path class="st56" d="M189.6 86.9c-2 .9-4.2 1.6-6.4 2h5V73.4h12.7v-2.7c2.3 5.1-2.8 12.4-11.3 16.2z"/>
      <path class="st58" d="M189.5 86.8c-2 .9-4.1 1.6-6.2 2h4.9V73.4h12.5v-2.6c2.2 5-2.8 12.2-11.2 16z"/>
      <path class="st60" d="M189.4 86.6c-2 .9-4 1.5-6.1 1.9h4.9V73.4h12.2V71c2.2 4.9-2.7 11.9-11 15.6z"/>
      <path class="st61" d="M189.4 86.5c-1.9.9-4 1.5-6 1.9h4.8v-15h11.9v-2.3c2.2 4.8-2.6 11.7-10.7 15.4z"/>
      <path class="st63" d="M189.3 86.3c-1.9.9-3.9 1.5-5.9 1.9h4.8V73.4h11.7v-2.2c2.1 4.7-2.6 11.5-10.6 15.1z"/>
      <path d="M189.2 86.2c-1.9.8-3.8 1.5-5.8 1.8h4.8V73.4h11.4v-2.1c2.1 4.7-2.5 11.3-10.4 14.9z" style="fill:#ceb889"/>
      <path class="st66" d="M189.1 86c-1.8.8-3.7 1.4-5.7 1.8h4.7V73.4h11.1v-2c2.2 4.6-2.3 11.1-10.1 14.6z"/>
      <path class="st68" d="M189.1 85.9c-1.8.8-3.6 1.4-5.5 1.8h4.7V73.4h10.9v-1.9c1.9 4.5-2.5 11-10.1 14.4z"/>
      <path class="st68" d="M189 85.7c-1.8.8-3.6 1.4-5.5 1.7h4.7v-14h10.7v-1.8c2 4.5-2.4 10.8-9.9 14.1z"/>
      <path d="M189 85.6c-1.7.8-3.5 1.4-5.4 1.7h4.6v-14h10.5v-1.7c2 4.5-2.4 10.7-9.7 14z" style="fill:#c8b384"/>
      <path class="st116" d="M189 85.5c-1.7.8-3.5 1.3-5.4 1.7h4.6V73.4h10.3v-1.6c2 4.3-2.3 10.5-9.5 13.7z"/>
      <path d="M188.9 85.4c-1.7.8-3.5 1.3-5.3 1.7h4.6V73.4h10.2v-1.5c1.8 4.2-2.3 10.3-9.5 13.5z" style="fill:#c4b082"/>
      <path d="M188.9 85.3c-1.7.8-3.4 1.3-5.3 1.7h4.6V73.4h10V72c1.9 4.1-2.3 10.1-9.3 13.3z" style="fill:#c4ae81"/>
      <path class="st118" d="M188.8 85.2c-1.7.8-3.4 1.3-5.2 1.6h4.5V73.4h9.8V72c2 4.2-2.1 10.1-9.1 13.2z"/>
      <path d="M188.8 85.1c-1.6.7-3.3 1.3-5.1 1.6h4.5V73.4h9.7v-1.3c1.8 4.1-2.3 9.9-9.1 13z" style="fill:#c1ab80"/>
      <path d="M188.7 85c-1.6.7-3.3 1.3-5 1.6h4.5V73.4h9.5v-1.3c1.8 4.2-2.2 9.9-9 12.9z" style="fill:#c1aa7f"/>
      <path class="st122" d="M188.7 84.9c-1.6.7-3.3 1.3-5 1.6h4.5V73.4h9.3v-1.2c1.8 4.1-2.1 9.7-8.8 12.7z"/>
      <path d="M188.6 84.8c-1.6.7-3.2 1.2-4.9 1.5h4.5v-13h9.1v-1.1c1.8 4.1-2.1 9.6-8.7 12.6z" style="fill:#bda77d"/>
      <path class="st123" d="M188.6 84.7c-1.5.7-3.2 1.2-4.8 1.5h4.4V73.4h9v-1c1.7 3.9-2.1 9.4-8.6 12.3z"/>
      <path d="M188.5 84.6c-1.5.7-3.1 1.2-4.8 1.5h4.4V73.4h8.8v-.9c1.8 3.8-2 9.3-8.4 12.1z" style="fill:#baa47b"/>
      <path class="st125" d="M188.5 84.6c-1.5.7-3.1 1.1-4.7 1.4h4.4V73.4h8.6v-.8c1.7 3.7-2 9.1-8.3 12z"/>
      <path d="M188.5 84.4c-1.5.6-3 1.1-4.6 1.4h4.4V73.3h8.5v-.8c1.5 3.8-2.1 9.1-8.3 11.9z" style="fill:#b8a179"/>
      <path d="M188.4 84.3c-1.5.6-3 1.1-4.5 1.4h4.3V73.4h8.3v-.7c1.6 3.6-2 8.9-8.1 11.6z" style="fill:#b7a178"/>
      <path d="M188.4 84.2c-1.4.6-2.9 1.1-4.5 1.4h4.3V73.4h8.1v-.6c1.7 3.6-1.9 8.7-7.9 11.4z" style="fill:#b49f77"/>
      <path d="M188.3 84.1c-1.4.6-2.9 1.1-4.4 1.4h4.3V73.4h8v-.5c1.6 3.5-2 8.5-7.9 11.2z" style="fill:#b49d76"/>
      <path class="st129" d="M188.3 84c-1.4.6-2.8 1.1-4.3 1.4h4.3v-12h7.8v-.5c1.5 3.5-2 8.5-7.8 11.1z"/>
      <path class="st130" d="M188.2 83.9c-1.4.6-2.8 1.1-4.3 1.4h4.2V73.4h7.6V73c1.7 3.4-1.7 8.3-7.5 10.9z"/>
      <path class="st131" d="M188.2 83.8V73.4h7.4v-.3c1.6 3.4-1.8 8.2-7.4 10.7z"/>
      <path class="st132" d="M188.2 83.7V73.4h7.3v-.2c1.5 3.3-1.8 8-7.3 10.5z"/>
      <path class="st133" d="M188.2 83.6V73.4h7.1v-.2c1.5 3.3-1.7 7.9-7.1 10.4z"/>
      <path class="st134" d="M188.2 83.5V73.4h6.9v-.1c1.5 3.2-1.7 7.8-7.1 10.2h.2z"/>
      <path class="st135" d="M188.2 83.4v-10h6.8c1.4 3.2-1.7 7.7-6.9 10h.1z"/>
      <path d="M188.2 83.3v-9.9l-5.3-1.3c5.2-2.4 10.5-1.7 11.9 1.4 1.4 3.1-1.7 7.5-6.9 9.9l.3-.1z" style="fill:#aa936e"/>
      <path class="st137" d="M188.2 83.2v-9.8l-5.3-1.2c5.1-2.3 10.4-1.7 11.8 1.3s-1.6 7.4-6.7 9.7h.2z"/>
      <path class="st138" d="M188.2 83.2v-9.7l-5.2-1.1c5-2.3 10.2-1.7 11.5 1.4s-1.6 7.1-6.6 9.4h.3z"/>
      <path class="st139" d="M188.2 83v-9.6l-5.2-1c4.9-2.2 10-1.6 11.3 1.3s-1.6 7.1-6.5 9.3h.4z"/>
      <path class="st140" d="M188.2 82.9v-9.5l-5.1-.9c4.8-2.2 9.8-1.6 11.1 1.3s-1.5 6.9-6.4 9.2h.4z"/>
      <path class="st141" d="M188.2 82.8v-9.4l-5.1-.8c4.7-2.1 9.6-1.6 10.9 1.2s-1.5 6.8-6.2 9h.4z"/>
      <path d="M188.2 82.7v-9.3l-5-.7c4.6-2.1 9.4-1.6 10.7 1.2 1.2 2.8-1.5 6.7-6.1 8.8h.4z" style="fill:#a48e6a"/>
      <path d="M188.2 82.6v-9.2l-5-.6c4.5-2.1 9.2-1.5 10.4 1.2 1.2 2.7-1.4 6.6-6 8.6h.6z" style="fill:#a38d68"/>
      <path d="M188.2 82.5v-9.1l-5-.5c4.5-2 9-1.5 10.2 1.2 1.2 2.7-1.4 6.4-5.9 8.4h.7z" style="fill:#a28a67"/>
      <path d="M188.2 82.4v-9l-4.9-.4c4.3-2 8.8-1.4 10 1.1 1.2 2.5-1.4 6.3-5.7 8.3h.6z" style="fill:#a18966"/>
      <path d="M188.2 82.3v-8.9l-4.9-.3c4.3-1.9 8.6-1.4 9.8 1.1 1.2 2.5-1.4 6.2-5.5 8.1h.6z" style="fill:#9f8866"/>
      <path class="st147" d="M188.2 82.2v-8.8l-4.8-.2c4.2-1.9 8.5-1.4 9.6 1.1 1.1 2.5-1.4 6-5.5 7.9h.7z"/>
      <path d="M188.2 82.1v-8.7l-4.8-.1c4.1-1.8 8.3-1.4 9.4 1.1 1 2.5-1.3 5.9-5.4 7.7h.8z" style="fill:#9d8763"/>
      <path d="M188.2 82v-8.6h-4.7c4-1.8 8.1-1.4 9.2 1 1.1 2.4-1.3 5.8-5.3 7.6h.8z" style="fill:#9a8463"/>
      <path d="M188.2 81.9v-8.4h-4.7c3.9-1.8 7.9-1.3 8.9 1 1.1 2.3-1.2 5.6-5.1 7.4h.9z" style="fill:#9a8362"/>
      <path d="M188.2 81.8v-8.2h-4.6c3.8-1.7 7.7-1.3 8.7 1 1 2.3-1.2 5.5-5 7.2h.9z" style="fill:#988261"/>
      <path class="st151" d="M188.2 81.7v-8h-4.6c3.7-1.7 7.5-1.2 8.5 1s-1.2 5.4-4.9 7h1z"/>
      <path class="st152" d="M188.2 81.6v-7.8h-4.6c3.6-1.6 7.3-1.2 8.3.9 1 2.1-1.2 5.2-4.8 6.9h1.1z"/>
      <path class="st152" d="M188.2 81.5v-7.6h-4.5c3.5-1.6 7.1-1.2 8.1.9s-1.1 5.1-4.6 6.7h1z"/>
      <path d="M188.2 81.4V74h-4.5c3.4-1.5 6.9-1.1 7.9.9s-1.1 5-4.5 6.5h1.1z" style="fill:#967f5f"/>
      <path class="st153" d="M188.2 81.3v-7.2h-4.4c3.3-1.5 6.8-1.1 7.7.9.9 2-1.1 4.8-4.4 6.3h1.1z"/>
      <path class="st156" d="M188.2 81.2v-6.9h-4.4c3.2-1.5 6.6-1.1 7.4.8s-1 4.7-4.3 6.2l1.3-.1z"/>
      <path d="M188.2 81.1v-6.8h-4.3c3.1-1.4 6.4-1.1 7.2.8.8 1.9-1 4.5-4.2 6h1.3z" style="fill:#947c5c"/>
      <path class="st158" d="M188.2 81v-6.6h-4.3c3-1.4 6.2-1 6.9.8.7 1.8-1 4.4-4 5.8h1.4z"/>
      <path class="st159" d="M188.2 80.9v-6.4H184c3-1.4 6-1 6.8.8s-.9 4.3-3.9 5.6h1.3z"/>
      <path d="M188.2 80.8v-6.2H184c2.9-1.3 5.8-1 6.6.7s-.9 4.2-3.8 5.5h1.4z" style="fill:#907a5a"/>
      <path class="st160" d="M188.2 80.7v-6H184c2.8-1.2 5.5-.9 6.4.7.8 1.7-.9 4-3.7 5.3h1.5z"/>
      <path class="st161" d="M188.2 80.6v-5.7H184c2.7-1.2 5.4-.9 6.2.7.7 1.6-.9 3.9-3.5 5.1l1.5-.1z"/>
      <path class="st162" d="M188.2 80.5v-5.6h-4c2.6-1.2 5.2-.9 5.9.7.7 1.6-.8 3.7-3.4 4.9h1.5z"/>
      <path class="st163" d="M188.2 80.4V75h-4c2.5-1.1 5.1-.8 5.7.7s-.8 3.6-3.3 4.8h1.6z"/>
      <path class="st164" d="M188.2 80.3v-5.2h-4c2.4-1.1 4.9-.8 5.5.6.7 1.4-.8 3.5-3.2 4.5l1.7.1z"/>
      <path class="st208" d="M188.2 80.2v-5h-3.9c2.3-1.1 4.7-.8 5.3.6.6 1.4-.7 3.3-3 4.4h1.6z"/>
      <path class="st208" d="M188.2 80.1v-4.8h-3.9c2.2-1 4.5-.7 5.1.6s-.7 3.2-2.9 4.2h1.7z"/>
      <path class="st166" d="M188.2 80v-4.6h-3.8c2.1-1 4.3-.7 4.9.6.6 1.3-.7 3.1-2.8 4h1.7z"/>
      <path class="st168" d="M188.2 79.9v-4.4h-3.8c2-.9 4.2-.7 4.7.5s-.7 3-2.7 3.8h1.8z"/>
      <path class="st169" d="M188.2 79.8v-4.2h-3.7c1.9-.9 3.9-.7 4.5.5.5 1.2-.6 2.8-2.6 3.7h1.8z"/>
      <path d="M188.2 79.7v-4h-3.7c1.8-.8 3.7-.6 4.2.5.4 1.1-.6 2.7-2.4 3.5h1.9z" style="fill:#8a7153"/>
      <path class="st169" d="M188.2 79.6v-3.8h-3.6c1.7-.8 3.5-.6 4 .5s-.6 2.5-2.3 3.3h1.9z"/>
      <path d="M188.2 79.5v-3.6h-3.6c1.7-.7 3.4-.6 3.8.4.4 1-.5 2.4-2.2 3.1l2 .1z" style="fill:#877053"/>
      <path class="st172" d="M188.2 79.4V76h-3.6c1.6-.7 3.2-.5 3.6.4.4.9-.5 2.3-2.1 3h2.1z"/>
      <path d="M188.2 79.3v-2.8h-.1c.4.9-.5 2.1-1.9 2.8h2z" style="fill:#856e52"/>
      <path class="st173" d="M188.2 79.2v-2.6h-.3c.4.8-.4 2-1.8 2.6h2.1z"/>
    </g>
    <linearGradient id="SVGID_44_" gradientUnits="userSpaceOnUse" x1="197.814" y1="310.878" x2="195.179" y2="289.311" gradientTransform="matrix(1 0 0 -1 0 381.663)">
      <stop offset=".23" style="stop-color:#cab485"/>
      <stop offset=".29" style="stop-color:#ceb98a"/>
      <stop offset=".75" style="stop-color:#e7d6ac"/>
      <stop offset="1" style="stop-color:#f1e1b9"/>
    </linearGradient>
    <path d="M204.6 91c-1.1-1.7-2.2-3.4-3.2-5.1s-.6-2.6 0-4.5c.3-.9 1.2-2.8.8-3.7-.4-1-2-1.2-2.8-1.8.2.1.5.4.7.6.7.4-2 2.4-2.2 2.6-1 .7-2 1.3-3.1 1.9-1 .4-2 .9-3 1.5-.6.6.6 1.4.3 2.1-.4.9-1 1.8-1.8 2.4-1.2 1.1-2.6 1.9-4.2 2.6-1.2.4-2.1.5-2.5 1.7-.3 1.5.1 3.1 1.1 4.3 1.8 2.3 5.8 2.6 8.5 2.6 4.5-.1 8.9-1.2 12.9-3.1 0-1.6-.6-3-1.5-4.1z" style="fill:url(#SVGID_44_)"/>
    <path class="st213" d="m148.2 319.3-14.7 11.3-.9 30.9 10.3-7.8.2-6 3.8-3c9.5-8 11.1-9.6 11.9-18.2v-2.3c.5-9.6-4.1-9.9-10.6-4.9m.2 11.4-.1 1.3c-.2 2.5-1.3 3.5-2.9 4.8l-2.1 1.7.2-7.2 2.2-1.7c2.1-1.7 2.8-1.5 2.7 1.1M125.7 341.3c-2.1-1.3-5.5-1.2-9 1.5l-5.4 4.2c-8.4 6.5-10.2 10.4-10.7 16.5l-.6 7.8c-.1 4.7.9 7.2 2.9 8.3 2 1.2 5.5 1.2 9-1.5l5.4-4.2c8.4-6.5 10.3-10.4 10.7-16.5l.6-7.8c.1-4.7-.9-7.2-2.9-8.3m-7.7 14.1-.4 5.7c-.2 1.4-.2 4.4-2.6 6.4l-1.5 1.1c-1 .7-1.7.7-2.1.4-.5-.3-.8-1.7-.7-3.4l.4-5.7c.2-1.4.2-4.4 2.7-6.4l1.5-1.1c1-.7 1.7-.7 2.1-.4.4.4.7 1.7.6 3.4M165 324.4c-.8 2.6-2.6 4.8-4.9 6.2l1.7 8.8c4-2.1 7.4-5.1 10.1-8.8 2.9-4.2 3.8-11.1 4-23l3.5-2.7-.7 21.3 10.3-7.9 1-30.9-23.4 17.9c0 7.5-.1 14.2-1.6 19.1M195.4 313.4l20.8-15.9.2-8.9-10.4 8.1.1-3.1 7.8-6 .2-7.3-7.8 6 .1-2.8 10.4-7.9.2-8.9-20.7 15.8zM279.4 223.4c-2.1-1.3-5.5-1.2-9 1.5l-5.4 4.2c-8.4 6.6-10.2 10.4-10.7 16.5l-.6 7.8c-.1 4.7.9 7.2 2.9 8.3s5.5 1.2 9-1.5l5.4-4.2c8.4-6.5 10.3-10.4 10.7-16.5l.6-7.8c.1-4.6-1-7.1-2.9-8.3m-7.7 14.2-.4 5.7c-.2 1.4-.2 4.4-2.7 6.4l-1.5 1.1c-1 .7-1.7.7-2.1.4-.5-.3-.8-1.7-.7-3.4l.4-5.7c.2-1.4.2-4.4 2.7-6.4l1.5-1.1c1-.7 1.7-.7 2.1-.4.5.4.8 1.7.7 3.4M215.7 256.2l-8 6.2-.3 7.8 8.2-6.3zM238.9 260.6l-6.1 4.7.4-11.1-10.5 8.1-1 30.9 10.5-8 .3-11.1 6.2-4.7-.4 11.1 10.5-8 1-31-10.5 8zM314.8 191.7l-12.1 9.3-3.6 13.7-2 1.4.4-11.1-10.5 8-1.1 31 10.5-8 .4-12.4 3.1-2.3 2.9 9.8 10.2-7.8-4.6-11.5zM205.4 264.2l-8 6.1-.3 7.8 8.1-6.2z"/>
    <path class="st213" d="m148.2 319.3-14.7 11.3-.9 30.9 10.3-7.8.2-6 3.8-3c9.5-8 11.1-9.6 11.9-18.2v-2.3c.5-9.6-4.1-9.9-10.6-4.9m.2 11.4-.1 1.3c-.2 2.5-1.3 3.5-2.9 4.8l-2.1 1.7.2-7.2 2.2-1.7c2.1-1.7 2.8-1.5 2.7 1.1M125.7 341.3c-2.1-1.3-5.5-1.2-9 1.5l-5.4 4.2c-8.4 6.5-10.2 10.4-10.7 16.5l-.6 7.8c-.1 4.7.9 7.2 2.9 8.3 2 1.2 5.5 1.2 9-1.5l5.4-4.2c8.4-6.5 10.3-10.4 10.7-16.5l.6-7.8c.1-4.7-.9-7.2-2.9-8.3m-7.7 14.1-.4 5.7c-.2 1.4-.2 4.4-2.6 6.4l-1.5 1.1c-1 .7-1.7.7-2.1.4-.5-.3-.8-1.7-.7-3.4l.4-5.7c.2-1.4.2-4.4 2.7-6.4l1.5-1.1c1-.7 1.7-.7 2.1-.4.4.4.7 1.7.6 3.4M165 324.4c-.8 2.6-2.6 4.8-4.9 6.2l1.7 8.8c4-2.1 7.4-5.1 10.1-8.8 2.9-4.2 3.8-11.1 4-23l3.5-2.7-.7 21.3 10.3-7.9 1-30.9-23.4 17.9c0 7.5-.1 14.2-1.6 19.1M195.4 313.4l20.8-15.9.2-8.9-10.4 8.1.1-3.1 7.8-6 .2-7.3-7.8 6 .1-2.8 10.4-7.9.2-8.9-20.7 15.8zM279.4 223.4c-2.1-1.3-5.5-1.2-9 1.5l-5.4 4.2c-8.4 6.6-10.2 10.4-10.7 16.5l-.6 7.8c-.1 4.7.9 7.2 2.9 8.3s5.5 1.2 9-1.5l5.4-4.2c8.4-6.5 10.3-10.4 10.7-16.5l.6-7.8c.1-4.6-1-7.1-2.9-8.3m-7.7 14.2-.4 5.7c-.2 1.4-.2 4.4-2.7 6.4l-1.5 1.1c-1 .7-1.7.7-2.1.4-.5-.3-.8-1.7-.7-3.4l.4-5.7c.2-1.4.2-4.4 2.7-6.4l1.5-1.1c1-.7 1.7-.7 2.1-.4.5.4.8 1.7.7 3.4M215.7 256.2l-8 6.2-.3 7.8 8.2-6.3zM238.9 260.6l-6.1 4.7.4-11.1-10.5 8.1-1 30.9 10.5-8 .3-11.1 6.2-4.7-.4 11.1 10.5-8 1-31-10.5 8zM314.8 191.7l-12.1 9.3-3.6 13.7-2 1.4.4-11.1-10.5 8-1.1 31 10.5-8 .4-12.4 3.1-2.3 2.9 9.8 10.2-7.8-4.6-11.5zM205.4 264.2l-8 6.1-.3 7.8 8.1-6.2z"/>
  </g>
</svg>
